<svg width="48" height="47" viewBox="0 0 48 47" fill="none" xmlns="http://www.w3.org/2000/svg">
<path d="M47.4809 23.4988C47.4809 36.4778 36.9196 46.9976 23.8948 46.9976C10.8676 46.9976 0.308594 36.4754 0.308594 23.4988C0.308594 10.5199 10.87 0 23.8948 0C36.9219 0 47.4809 10.5222 47.4809 23.4988Z" fill="white"/>
<path d="M34.0589 13.5386H13.729C11.7199 13.5386 10.0918 15.1606 10.0918 17.1623V29.83C10.0918 31.8317 11.7199 33.4538 13.729 33.4538H34.0589C36.0657 33.4538 37.6961 31.8317 37.6961 29.83V17.1623C37.6961 15.163 36.068 13.5386 34.0589 13.5386ZM27.1584 24.3697L21.5051 27.1847C20.8519 27.5101 20.0852 27.0386 20.0852 26.3124V20.6823C20.0852 19.9561 20.8519 19.4846 21.5051 19.8076L27.1584 22.6226C27.8802 22.981 27.8802 24.009 27.1584 24.3697Z" fill="#060606"/>
</svg>
