<svg width="38" height="38" viewBox="0 0 38 38" fill="none" xmlns="http://www.w3.org/2000/svg">
<path d="M37.4337 18.5792C37.4337 28.8409 29.0531 37.1583 18.7178 37.1583C8.38056 37.1602 0 28.8409 0 18.5792C0 8.31933 8.38056 0 18.7159 0C29.0531 0 37.4318 8.31933 37.4318 18.5792H37.4337Z" fill="#441355"/>
<path d="M24.2639 17.137L23.9522 19.6218C23.8996 20.0375 23.5447 20.3488 23.126 20.3488H19.0699V30.741C18.6418 30.7801 18.208 30.7987 17.7705 30.7987C16.7903 30.7987 15.8345 30.7018 14.9106 30.5173V20.3488H11.7916C11.5062 20.3488 11.2715 20.1158 11.2715 19.8306V16.7213C11.2715 16.4361 11.5043 16.2031 11.7916 16.2031H14.9106V11.5373C14.9106 8.67413 17.2391 6.35522 20.1102 6.35522H23.7494C24.0348 6.35522 24.2695 6.58823 24.2695 6.87344V9.9827C24.2695 10.2679 24.0367 10.5009 23.7494 10.5009H21.1486C20.0013 10.5009 19.0699 11.4292 19.0699 12.5738V16.2012H23.4377C23.939 16.2012 24.3259 16.6393 24.2639 17.1351V17.137Z" fill="white"/>
</svg>
