<svg width="19" height="20" viewBox="0 0 19 20" fill="none" xmlns="http://www.w3.org/2000/svg">
<path d="M2.97944 5.61627C4.31105 5.61627 5.39052 4.54468 5.39052 3.22281C5.39052 1.90094 4.31105 0.829346 2.97944 0.829346C1.64784 0.829346 0.568359 1.90094 0.568359 3.22281C0.568359 4.54468 1.64784 5.61627 2.97944 5.61627Z" fill="white"/>
<path d="M4.63051 7.21191H1.32937C1.13129 7.21191 0.970703 7.37132 0.970703 7.56795V18.8213C0.970703 19.018 1.13129 19.1774 1.32937 19.1774H4.63051C4.82859 19.1774 4.98917 19.018 4.98917 18.8213V7.56795C4.98917 7.37132 4.82859 7.21191 4.63051 7.21191Z" fill="white"/>
<path d="M18.6472 11.5965V18.3761C18.6472 18.8142 18.2848 19.1739 17.8435 19.1739H15.4324C14.9911 19.1739 14.6287 18.8142 14.6287 18.3761V12.7932C14.6287 11.6916 13.7293 10.7987 12.6195 10.7987C11.5097 10.7987 10.6103 11.6916 10.6103 12.7932V18.3761C10.6103 18.8142 10.2478 19.1739 9.80657 19.1739H7.3955C6.95422 19.1739 6.5918 18.8142 6.5918 18.3761V8.0063C6.5918 7.56825 6.95422 7.20848 7.3955 7.20848H9.80657C10.2478 7.20848 10.6103 7.56825 10.6103 8.0063V8.51706C11.414 7.48436 12.7434 6.80957 14.2269 6.80957C16.4446 6.80957 18.6472 8.40521 18.6472 11.5965Z" fill="white"/>
</svg>
