<svg width="118" height="118" viewBox="0 0 118 118" fill="none" xmlns="http://www.w3.org/2000/svg">
<path d="M63.0171 44.5069C65.5485 44.5069 67.6006 42.4548 67.6006 39.9234C67.6006 37.392 65.5485 35.3398 63.0171 35.3398C60.4857 35.3398 58.4336 37.392 58.4336 39.9234C58.4336 42.4548 60.4857 44.5069 63.0171 44.5069Z" fill="white"/>
<path d="M72.679 68.0792C72.711 68.4953 72.5285 68.8986 72.1956 69.1515L67.8266 72.4131C67.5801 72.5955 67.228 72.4707 67.1576 72.173C66.7767 70.563 65.1635 66.8661 65.0035 66.4788C63.3999 62.6571 61.2714 58.7137 58.0034 56.0571C56.0765 54.4919 53.6599 53.6021 51.1697 53.6661C49.2909 53.7141 45.5331 54.3927 44.7553 56.4476C43.6287 59.4275 49.4925 61.3063 51.5986 61.7993C56.1821 62.8683 61.3834 65.2081 63.9984 69.3179C66.7863 73.6966 64.805 79.1667 60.8617 82.089C55.5772 86.01 48.3434 86.3301 42.0667 87.2135C42.0667 87.2135 42.0635 87.2135 42.0603 87.2135C40.2262 87.4823 38.4818 86.3364 38.0017 84.5472C37.448 82.4859 36.827 80.1589 36.827 80.1589C39.2404 80.1365 41.6666 79.9573 44.0608 79.6724C46.2341 79.4132 57.4624 77.96 53.916 73.6518C52.0979 71.44 48.2826 70.5694 45.61 69.9549C45.6004 69.9549 45.5908 69.9517 45.5843 69.9484C45.5843 69.9484 34.7689 68.0504 33.9303 59.8148C32.7556 48.276 48.257 43.5004 57.1552 46.6148C60.9417 47.9399 64.6706 50.4397 66.7255 53.8261C66.7511 53.6821 68.1819 46.3715 74.9995 37.7518C76.6831 35.6233 79.5318 34.7975 82.0893 35.7033L83.8209 36.3178C83.8209 36.3178 70.8161 44.3518 72.6758 68.0792H72.679Z" fill="white"/>
<path d="M59.0021 96.5121C53.9385 96.5121 49.0253 95.5199 44.4002 93.5642C39.9319 91.6757 35.9213 88.9711 32.4773 85.527C29.0332 82.083 26.3286 78.0724 24.4401 73.6041C22.4844 68.979 21.4922 64.0658 21.4922 59.0021C21.4922 53.9385 22.4844 49.0253 24.4401 44.4002C26.3286 39.9319 29.0332 35.9213 32.4773 32.4773C35.9213 29.0332 39.9319 26.3286 44.4002 24.4401C49.0253 22.4844 53.9385 21.4922 59.0021 21.4922C64.0658 21.4922 68.979 22.4844 73.6041 24.4401C78.0724 26.3286 82.083 29.0332 85.527 32.4773C88.9711 35.9213 91.6757 39.9319 93.5642 44.4002C95.5199 49.0253 96.5121 53.9385 96.5121 59.0021C96.5121 64.0658 95.5199 68.979 93.5642 73.6041C91.6757 78.0724 88.9711 82.083 85.527 85.527C82.083 88.9711 78.0724 91.6757 73.6041 93.5642C68.979 95.5199 64.0658 96.5121 59.0021 96.5121ZM59.0021 23.5663C39.4646 23.5663 23.5663 39.4614 23.5663 59.0021C23.5663 78.5429 39.4614 94.438 59.0021 94.438C78.5429 94.438 94.438 78.5429 94.438 59.0021C94.438 39.4614 78.5429 23.5663 59.0021 23.5663Z" fill="white"/>
<path d="M59 117.997C51.0365 117.997 43.3098 116.438 36.0344 113.359C29.0087 110.389 22.6999 106.135 17.281 100.716C11.8621 95.2969 7.60826 88.9881 4.63793 81.9624C1.55878 74.6902 0 66.9635 0 59C0 51.0365 1.55878 43.3098 4.63793 36.0344C7.60826 29.0087 11.8621 22.6999 17.281 17.281C22.6999 11.8621 29.0087 7.60826 36.0344 4.63793C43.3066 1.55878 51.0333 0 59 0C66.9667 0 74.6902 1.55878 81.9656 4.63793C88.9913 7.60826 95.3001 11.8621 100.719 17.281C106.138 22.6999 110.392 29.0087 113.362 36.0344C116.438 43.3098 118 51.0365 118 59C118 66.9635 116.441 74.6902 113.362 81.9656C110.392 88.9913 106.138 95.3001 100.719 100.719C95.3001 106.138 88.9913 110.392 81.9656 113.362C74.6902 116.438 66.9635 118 59 118V117.997ZM59 2.07411C27.6099 2.07411 2.07411 27.6099 2.07411 59C2.07411 90.3901 27.6099 115.923 58.9968 115.923C90.3837 115.923 115.919 90.3869 115.919 59C115.919 27.6131 90.3869 2.07411 59 2.07411Z" fill="white"/>
<path d="M23.7004 35.6139L20.0099 33.6038C19.7058 33.4373 19.4529 33.4854 19.1937 33.6966L15.8777 36.8206L13.6723 35.6203C13.2562 35.393 13.1634 35.0313 13.381 34.6344L13.8003 33.8662C14.034 33.4341 14.3733 33.3477 14.7862 33.575L16.0313 34.2535C16.1913 34.34 16.3386 34.2984 16.425 34.1383L17.3308 32.4771C17.4268 32.3011 17.3756 32.1698 17.2156 32.0834L15.5224 31.1616C14.0212 30.3422 12.7857 30.7071 11.9695 32.2082L10.9933 33.9975C10.1835 35.4826 10.5388 36.7341 12.0399 37.5503L15.8104 39.6052C16.1145 39.7717 16.3834 39.7301 16.6362 39.4964L19.9458 36.3885L22.0712 37.5471C22.5033 37.7808 22.5897 38.1201 22.3624 38.533L21.9431 39.3012C21.7255 39.7013 21.3862 39.8261 20.9573 39.5924L19.7282 38.9235C19.5522 38.8275 19.4305 38.8627 19.3345 39.0387L18.4287 40.6999C18.3423 40.86 18.3679 40.9976 18.5439 41.0936L20.2211 42.009C21.7223 42.8284 22.9642 42.4475 23.774 40.9624L24.7502 39.1731C25.5696 37.672 25.2047 36.4365 23.7036 35.6203L23.7004 35.6139Z" fill="white"/>
<path d="M23.1558 18.6193C22.9829 18.4593 22.8037 18.4657 22.6404 18.6385L21.0048 20.3958C20.8576 20.5558 20.848 20.7222 20.9728 20.9111L26.2285 28.5609L18.2202 23.8686C18.0217 23.7598 17.8553 23.779 17.708 23.939L16.0724 25.6962C15.9124 25.8691 15.9188 26.0483 16.0916 26.2116L26.2125 35.6283C26.3854 35.7883 26.5646 35.7819 26.7278 35.6091L27.8673 34.3832C28.0274 34.2103 28.021 34.0311 27.8481 33.8678L21.8563 28.2921L21.9427 28.1993L29.1892 32.4819C29.3877 32.5907 29.5541 32.5715 29.7014 32.4115L30.3095 31.7585C30.4568 31.5985 30.4664 31.432 30.3415 31.2432L25.55 24.3263L25.6364 24.2335L31.6282 29.8092C31.8011 29.9693 31.9803 29.9629 32.1436 29.79L33.2958 28.5513C33.4559 28.3785 33.4495 28.1993 33.2766 28.036L23.1558 18.6193Z" fill="white"/>
<path d="M31.5948 12.6136C31.4668 12.4792 31.3356 12.476 31.1979 12.5624L29.0598 13.9131C28.9222 13.9995 28.8678 14.1212 28.935 14.294L33.8514 27.7341C33.9122 27.9325 34.0466 27.9773 34.2163 27.8685L35.8615 26.8283C35.9991 26.7418 36.0279 26.6138 35.9703 26.457L34.9684 23.9508L37.7051 22.2223L39.5552 24.1972C39.6736 24.3157 39.7984 24.3445 39.9361 24.258L41.5653 23.2274C41.7509 23.1122 41.7541 22.9809 41.6165 22.8305L31.5948 12.6168V12.6136ZM34.2259 21.9247L31.8221 15.936L36.1975 20.6828L34.2291 21.9247H34.2259Z" fill="white"/>
<path d="M46.8493 15.9591C47.5503 15.3157 47.7231 14.4099 47.3262 13.2576L45.8891 9.05821C45.3353 7.44181 44.1798 6.87527 42.5635 7.42901L38.2456 8.90777C38.0728 8.96538 38.0055 9.10622 38.0632 9.27586L42.5891 22.4919C42.6467 22.6647 42.7875 22.7319 42.9572 22.6743L44.7464 22.063C44.9192 22.0054 44.9864 21.8645 44.9288 21.6949L43.4437 17.3578L44.6312 16.9513L47.2814 20.9267C47.3678 21.0707 47.4831 21.1252 47.6559 21.0675L49.4451 20.4562C49.634 20.3922 49.7012 20.2513 49.5796 20.0625L46.8493 15.9591ZM44.3687 14.4995L42.6659 15.0821L41.0879 10.4698L42.7907 9.88721C43.2388 9.73357 43.5621 9.89361 43.7157 10.3385L44.8232 13.5745C44.9768 14.0226 44.8168 14.3459 44.3719 14.4995H44.3687Z" fill="white"/>
<path d="M55.7407 4.87899L49.0959 5.69199C48.9167 5.71439 48.8206 5.83602 48.8431 6.01527L49.0639 7.82051C49.0863 7.99975 49.2079 8.09577 49.3872 8.07337L51.4805 7.81731L52.9176 19.5898C52.9433 19.7882 53.0617 19.865 53.2409 19.8426L55.1198 19.6122C55.3182 19.5866 55.3983 19.4874 55.3726 19.2889L53.9355 7.51643L56.0288 7.26037C56.2273 7.23476 56.3041 7.11634 56.2817 6.93709L56.0608 5.13185C56.0384 4.95261 55.936 4.85338 55.7375 4.87899H55.7407Z" fill="white"/>
<path d="M73.6115 6.74417L71.9183 6.40489C71.7039 6.36328 71.5566 6.4433 71.4606 6.64815L67.6549 15.828L67.6965 5.89276C67.6869 5.66871 67.5813 5.53748 67.3668 5.49267L65.6736 5.15338C65.4047 5.09897 65.2703 5.2206 65.2735 5.47986L65.5552 19.6337C65.5648 19.8578 65.6704 19.989 65.8848 20.0338L67.6677 20.3923C67.8821 20.4339 68.0294 20.3539 68.1254 20.149L73.8548 7.19868C73.9572 6.95862 73.8804 6.79539 73.6115 6.74097V6.74417Z" fill="white"/>
<path d="M79.1676 8.77348L77.4008 8.10131C77.2151 8.0309 77.0903 8.10131 77.0263 8.27096L72.0587 21.3269C71.9946 21.4966 72.0394 21.631 72.2283 21.7014L73.9951 22.3736C74.1648 22.4376 74.3056 22.3736 74.3696 22.204L79.3372 9.14797C79.4012 8.97833 79.3372 8.83749 79.1676 8.77348Z" fill="white"/>
<path d="M85.2649 20.5911C85.4377 20.2902 85.3961 20.0374 85.1913 19.7717L82.1441 16.3853L83.3956 14.2087C83.6325 13.799 83.9942 13.7126 84.3879 13.9399L85.1465 14.3752C85.5722 14.6184 85.649 14.9577 85.4153 15.3674L84.7079 16.5965C84.6183 16.7534 84.6567 16.9038 84.8168 16.9934L86.4556 17.9345C86.6284 18.0337 86.7629 17.9857 86.8525 17.8256L87.8127 16.1548C88.6641 14.6729 88.328 13.431 86.8461 12.5795L85.0792 11.5649C83.6133 10.7231 82.3554 11.0496 81.504 12.5315L79.3658 16.254C79.193 16.5549 79.2282 16.8238 79.4555 17.083L82.4866 20.4599L81.2799 22.5564C81.0367 22.9821 80.6974 23.0589 80.2877 22.8252L79.5291 22.3899C79.1354 22.1627 79.017 21.8234 79.2602 21.3977L79.958 20.1846C80.0572 20.0118 80.0252 19.8869 79.8492 19.7877L78.2104 18.8435C78.0535 18.7539 77.9127 18.7763 77.8135 18.9523L76.8628 20.6071C76.0114 22.0891 76.3603 23.3406 77.8295 24.1824L79.5963 25.197C81.0783 26.0484 82.3202 25.7123 83.1716 24.2304L85.2649 20.5879V20.5911Z" fill="white"/>
<path d="M93.7039 17.4668L92.2315 16.2794C92.0747 16.1545 91.937 16.1801 91.8218 16.3242L83.0453 27.1908C82.93 27.3317 82.9332 27.4757 83.0901 27.6005L84.5624 28.788C84.7033 28.9032 84.8569 28.8872 84.9721 28.7432L93.7487 17.8765C93.8639 17.7357 93.8479 17.5821 93.7039 17.4668Z" fill="white"/>
<path d="M99.6225 27.1621C100.89 26.0162 100.957 24.7327 99.8113 23.462L98.4446 21.9512C97.2987 20.6837 96.0152 20.6165 94.7445 21.7624L87.834 28.0071C86.5665 29.153 86.4993 30.4365 87.6452 31.7072L89.0119 33.218C90.1578 34.4855 91.4413 34.5527 92.712 33.4068L99.6225 27.1621ZM90.4491 31.3071L89.7417 30.5229C89.4248 30.1708 89.428 29.8251 89.7929 29.4955L96.028 23.8621C96.3801 23.5452 96.7386 23.5644 97.0555 23.9133L97.7628 24.6975C98.0797 25.0496 98.0605 25.4081 97.7116 25.7249L91.4765 31.3583C91.1116 31.688 90.7659 31.656 90.4491 31.3071Z" fill="white"/>
<path d="M107.824 35.404L106.889 33.7588C106.79 33.586 106.649 33.5604 106.492 33.65L99.8187 37.4429L99.7643 37.3469L105.119 31.1246C105.234 30.9965 105.244 30.8653 105.164 30.7245L104.274 29.1593C104.185 29.0025 104.034 28.9608 103.877 29.0505L91.7335 35.9546C91.5767 36.0442 91.5351 36.1946 91.6247 36.3514L92.5593 37.9967C92.6585 38.1695 92.7994 38.1951 92.9562 38.1055L99.6618 34.2933L99.7067 34.3734L94.3293 40.6309C94.2141 40.7589 94.2045 40.8902 94.2845 41.031L95.1744 42.5962C95.264 42.753 95.4144 42.7946 95.5712 42.705L107.715 35.8009C107.872 35.7113 107.913 35.5609 107.824 35.404Z" fill="white"/>
<path d="M14.4388 65.4779C14.3332 65.4875 14.2627 65.4298 14.2531 65.3242L14.0003 62.7092L11.8814 62.914L12.0734 64.8953C12.083 65.0009 12.0254 65.0714 11.9198 65.081L10.8667 65.1834C10.7515 65.1962 10.6907 65.1354 10.6811 65.0297L10.489 63.0485L7.12499 63.3749C7.01937 63.3845 6.94895 63.3269 6.93935 63.2213L6.83372 62.1234C6.82092 62.0082 6.88173 61.9474 6.98736 61.9378L15.0853 61.1536C15.191 61.144 15.2582 61.1888 15.271 61.3072L15.6487 65.1866C15.6583 65.2922 15.6007 65.3626 15.495 65.3722L14.442 65.4747L14.4388 65.4779Z" fill="white"/>
<path d="M14.2175 65.9902C15.1937 65.7917 15.8179 66.2014 16.0195 67.1776L16.2564 68.3395C16.4549 69.3158 16.0452 69.9399 15.0689 70.1416L9.75562 71.2298C8.77938 71.4283 8.15523 71.0186 7.95358 70.0423L7.71672 68.8805C7.51827 67.9042 7.92797 67.2801 8.90421 67.0784L14.2175 65.9902ZM9.24029 69.5078C9.2947 69.7767 9.46114 69.8951 9.73961 69.8375L14.5344 68.8549C14.8032 68.8004 14.9185 68.6244 14.8641 68.3555L14.7392 67.7538C14.6848 67.4849 14.5088 67.3697 14.2399 67.4241L9.44514 68.4067C9.16347 68.4644 9.06105 68.6372 9.11546 68.9061L9.24029 69.5078Z" fill="white"/>
<path d="M14.1572 75.8496C13.4819 76.0704 12.9569 75.9616 12.5888 75.5487L10.1755 77.1043C10.0634 77.1747 9.98341 77.1331 9.9482 77.021L9.60572 75.9744C9.57371 75.8752 9.60572 75.808 9.69214 75.7567L12.0287 74.2492L11.8015 73.5546L9.26324 74.3836C9.16401 74.4156 9.08079 74.3772 9.04878 74.2748L8.7063 73.2281C8.67429 73.1289 8.7127 73.0457 8.81513 73.0137L16.5514 70.4915C16.6506 70.4594 16.7307 70.4979 16.7659 70.6003L17.5917 73.1289C17.8989 74.0763 17.5597 74.7421 16.6154 75.0526L14.1572 75.8528V75.8496ZM13.4595 74.1179C13.5459 74.3804 13.7315 74.4732 13.994 74.39L15.8889 73.7723C16.1513 73.6858 16.2441 73.5002 16.1609 73.2377L15.8344 72.2423L13.1362 73.1225L13.4627 74.1211L13.4595 74.1179Z" fill="white"/>
<path d="M18.8682 82.3952C18.7753 82.4433 18.6889 82.4177 18.6409 82.3248L18.148 81.387C18.0936 81.2846 18.1256 81.2078 18.2184 81.1597L18.9706 80.766C19.2139 80.638 19.2779 80.4396 19.1498 80.1931L18.8938 79.7066C18.7625 79.4537 18.5673 79.3993 18.3208 79.5273L14.0414 81.7679C13.7885 81.8991 13.7341 82.0944 13.8622 82.3408L14.1182 82.8273C14.2462 83.0706 14.4383 83.1378 14.6912 83.0066L15.4433 82.6129C15.5362 82.5649 15.6194 82.5809 15.6706 82.6833L16.1635 83.6211C16.2115 83.714 16.1859 83.8004 16.0931 83.8484L15.0784 84.3797C14.195 84.8406 13.4781 84.6102 13.0203 83.7364L12.4698 82.6865C12.0089 81.8031 12.2266 81.0797 13.1068 80.6188L17.9111 78.103C18.7946 77.6421 19.5115 77.8725 19.9756 78.756L20.5262 79.8058C20.9839 80.6796 20.7662 81.403 19.8828 81.8639L18.8682 82.3952Z" fill="white"/>
<path d="M20.2923 82.5516C21.1181 81.9947 21.8542 82.1387 22.408 82.9677L23.0705 83.9536C23.6275 84.7794 23.4834 85.5156 22.6544 86.0693L18.1541 89.0972C17.3283 89.6542 16.5921 89.5101 16.0384 88.6843L15.3759 87.6985C14.8189 86.8727 14.963 86.1365 15.792 85.5828L20.2923 82.5548V82.5516ZM17.0243 87.6985C17.1779 87.9257 17.3763 87.9738 17.6132 87.8137L21.675 85.0835C21.9022 84.9298 21.9439 84.725 21.7902 84.4945L21.4477 83.9856C21.2941 83.7583 21.0892 83.7167 20.8588 83.8704L16.797 86.6006C16.5601 86.7607 16.5281 86.9591 16.6818 87.1896L17.0243 87.6985Z" fill="white"/>
<path d="M27.1115 89.0242C27.1787 89.1042 27.1723 89.1938 27.0923 89.2642L20.902 94.5455C20.822 94.6127 20.7323 94.6063 20.6619 94.5263L19.9802 93.7293C19.9193 93.6557 19.9097 93.5821 19.961 93.4956L22.3487 89.3282L22.3135 89.2866L18.8983 92.2025C18.8183 92.2697 18.7351 92.2729 18.6582 92.1833L17.9445 91.3447C17.8772 91.2647 17.8837 91.1751 17.9637 91.1047L24.154 85.8234C24.234 85.7562 24.3236 85.7626 24.394 85.8426L25.0758 86.6396C25.1366 86.7132 25.1462 86.7868 25.095 86.8732L22.7136 91.0214L22.7552 91.0694L26.1545 88.1663C26.2345 88.0991 26.3177 88.0959 26.3945 88.1856L27.1083 89.0242H27.1115Z" fill="white"/>
<path d="M29.639 91.4398C30.3688 92.1183 30.3944 92.8673 29.7158 93.5971L28.9508 94.4197C28.8772 94.4965 28.7972 94.5093 28.7108 94.4293L27.9042 93.6803C27.8274 93.6067 27.8242 93.5171 27.8946 93.4403L28.4579 92.8353C28.6468 92.6337 28.6467 92.432 28.4355 92.2368L28.0642 91.8911C27.869 91.7118 27.6513 91.7118 27.4657 91.9135L26.4702 92.9825L27.7537 95.3063C27.8338 95.4824 27.8242 95.6328 27.6897 95.78L26.0221 97.5725C25.3435 98.3022 24.5946 98.3278 23.8648 97.6493L22.9974 96.8427C22.2772 96.1705 22.242 95.4151 22.9206 94.6854L23.6791 93.8724C23.7592 93.7859 23.8424 93.7923 23.9192 93.8628L24.7258 94.6117C24.8122 94.6918 24.8154 94.7654 24.7354 94.8518L24.1785 95.4503C23.9832 95.6584 24.0056 95.8696 24.2009 96.0489L24.5722 96.3946C24.7738 96.5834 24.9755 96.5834 25.1707 96.3722L26.1309 95.3415L24.857 93.0274C24.761 92.8513 24.777 92.6913 24.9146 92.544L26.6175 90.7132C27.296 89.9834 28.0514 89.9642 28.7748 90.6364L29.6422 91.4462L29.639 91.4398Z" fill="white"/>
<path d="M34.4752 95.2735C34.568 95.3439 34.5872 95.4751 34.52 95.5712L30.5094 100.987C29.9173 101.787 29.1747 101.899 28.3745 101.304L27.4207 100.596C26.6205 100.004 26.5085 99.2617 27.1038 98.4615L31.1144 93.0457C31.1848 92.9529 31.316 92.9337 31.4121 93.0009L32.2283 93.6059C32.3211 93.6763 32.3403 93.8075 32.2731 93.9036L28.4385 99.0792C28.2689 99.3097 28.3041 99.5081 28.5281 99.6714L28.9699 99.9978C29.1907 100.161 29.3924 100.139 29.562 99.9082L33.3965 94.7326C33.467 94.6397 33.5982 94.6205 33.6942 94.6877L34.4784 95.2671L34.4752 95.2735Z" fill="white"/>
<path d="M32.859 102.583L35.0388 103.85C35.138 103.908 35.154 103.991 35.0996 104.081L34.5682 104.996C34.5106 105.096 34.437 105.115 34.3378 105.057L31.0602 103.149C30.9674 103.095 30.9418 103.018 30.9994 102.919L35.09 95.8869C35.1444 95.7941 35.2308 95.7717 35.3204 95.8261L36.2743 96.3798C36.3735 96.4374 36.3895 96.5206 36.3351 96.6103L32.8622 102.58L32.859 102.583Z" fill="white"/>
<path d="M41.9439 99.3189C42.0496 99.3702 42.0688 99.4502 42.024 99.5462L41.5694 100.503C41.5246 100.599 41.4478 100.634 41.3422 100.583L40.2315 100.055L37.2676 106.293C37.2164 106.399 37.146 106.425 37.0403 106.373L36.0449 105.9C35.9489 105.855 35.9137 105.778 35.9649 105.672L38.9288 99.4342L37.8181 98.906C37.7221 98.8612 37.6933 98.7748 37.7381 98.6788L38.1926 97.7218C38.2374 97.6257 38.3239 97.5969 38.4199 97.6417L41.9407 99.3157L41.9439 99.3189Z" fill="white"/>
<path d="M42.5035 108.553C42.4139 108.521 42.3819 108.454 42.3947 108.354L42.6443 106.799L40.8711 106.155L40.0741 107.513C40.0229 107.596 39.9525 107.628 39.8629 107.596L38.797 107.209C38.6882 107.17 38.6594 107.09 38.7298 106.991L43.1597 99.9331C43.2173 99.8403 43.2909 99.8211 43.3805 99.8563L44.7633 100.359C44.8529 100.391 44.8977 100.452 44.8817 100.56L43.7582 108.819C43.739 108.934 43.6782 108.982 43.5566 108.937L42.5003 108.553H42.5035ZM43.4349 101.847L41.5369 105.093L42.8108 105.554L43.4349 101.847Z" fill="white"/>
<path d="M51.2009 102.086C51.3034 102.109 51.3514 102.186 51.329 102.291L49.4949 110.22C49.4725 110.322 49.3957 110.37 49.2901 110.348L48.269 110.111C48.1762 110.088 48.125 110.034 48.1154 109.935L47.5552 105.162L47.504 105.15L46.4926 109.525C46.4702 109.627 46.403 109.679 46.2877 109.653L45.2155 109.403C45.1131 109.381 45.065 109.304 45.0874 109.199L46.9215 101.27C46.9439 101.168 47.0207 101.12 47.1263 101.142L48.1474 101.379C48.2402 101.401 48.2914 101.456 48.301 101.555L48.8548 106.305L48.9156 106.318L49.9238 101.962C49.9462 101.859 50.0134 101.808 50.1287 101.834L51.2009 102.083V102.086Z" fill="white"/>
<path d="M55.8938 105.353C55.881 105.458 55.8106 105.513 55.7049 105.503L54.6519 105.385C54.5366 105.372 54.4918 105.302 54.5014 105.196L54.5975 104.354C54.6295 104.082 54.4982 103.916 54.223 103.884L53.6756 103.823C53.3908 103.791 53.2371 103.922 53.2051 104.197L52.6578 108.995C52.6258 109.28 52.757 109.434 53.0323 109.466L53.5796 109.53C53.8549 109.562 54.0149 109.44 54.0501 109.155L54.1461 108.314C54.159 108.208 54.2166 108.15 54.335 108.163L55.3881 108.282C55.4937 108.294 55.5481 108.365 55.5385 108.47L55.4105 109.607C55.2984 110.596 54.6999 111.06 53.7236 110.951L52.5458 110.817C51.5567 110.705 51.0798 110.116 51.1918 109.127L51.8064 103.736C51.9184 102.747 52.517 102.283 53.506 102.395L54.6839 102.53C55.6633 102.642 56.1402 103.227 56.0282 104.217L55.9002 105.353H55.8938Z" fill="white"/>
<path d="M61.6575 102.734C61.8175 102.734 61.8911 102.83 61.8271 102.978L59.9002 107.696L59.9098 111.002C59.9098 111.14 59.8362 111.213 59.6986 111.213H58.6807C58.5431 111.213 58.4695 111.143 58.4695 111.005L58.4599 107.699L56.5074 102.99C56.4434 102.843 56.517 102.747 56.677 102.747H57.7365C57.8645 102.744 57.9381 102.795 57.9798 102.914L59.1736 105.951L60.3515 102.907C60.3931 102.792 60.4668 102.738 60.5948 102.738H61.6543L61.6575 102.734Z" fill="white"/>
<path d="M67.9263 101.842C68.0608 101.816 68.1472 101.877 68.1728 102.011L68.3488 102.968C68.3744 103.103 68.3136 103.189 68.1792 103.215L66.5852 103.509C66.3035 103.56 66.1947 103.733 66.2459 104.002L66.4636 105.18C66.5116 105.439 66.6844 105.561 66.9565 105.51L67.9263 105.331L67.8495 104.914C67.8239 104.78 67.8847 104.694 68.0192 104.668L69.0082 104.486C69.1426 104.46 69.229 104.521 69.2547 104.655L69.3315 105.071L69.77 104.991C69.9044 104.966 69.9908 105.026 70.0164 105.161L70.1925 106.118C70.2181 106.252 70.1573 106.339 70.0228 106.364L69.5843 106.444L70.2085 109.818C70.2341 109.952 70.1733 110.039 70.0388 110.064L67.5806 110.519C66.6012 110.701 65.9739 110.279 65.7914 109.299L65.4169 107.28C65.3465 106.896 65.5738 106.55 65.9354 106.419V106.4C65.545 106.406 65.2089 106.166 65.1384 105.782L64.8024 103.97C64.6199 102.991 65.0552 102.373 66.0347 102.191L67.9199 101.842H67.9263ZM67.2094 106.886C66.9277 106.937 66.8189 107.11 66.8701 107.379L67.1229 108.755C67.1741 109.037 67.347 109.146 67.6159 109.095L68.5857 108.915L68.176 106.707L67.2062 106.886H67.2094Z" fill="white"/>
<path d="M72.3287 100.893C72.2903 100.794 72.3191 100.717 72.4279 100.676L74.8093 99.7859C75.7407 99.437 76.4289 99.7571 76.7746 100.692L78.6694 105.762C79.0183 106.693 78.7078 107.375 77.7732 107.724L75.3918 108.614C75.283 108.655 75.2158 108.623 75.1742 108.514L72.3255 100.893H72.3287ZM77.0082 106.517C77.2675 106.421 77.3571 106.239 77.2579 105.973L75.5711 101.457C75.4718 101.188 75.2798 101.101 75.0205 101.197L74.1083 101.54L76.096 106.86L77.0082 106.517Z" fill="white"/>
<path d="M81.1418 98.1881C81.1898 98.2842 81.1866 98.3674 81.0714 98.425L78.7092 99.6189L79.6662 101.511L81.4714 100.598C81.5675 100.55 81.6507 100.579 81.7051 100.682L82.1788 101.616C82.23 101.719 82.2044 101.805 82.1084 101.853L80.3032 102.765L81.2698 104.676L83.632 103.482C83.744 103.425 83.808 103.453 83.8592 103.556L84.3361 104.5C84.3842 104.596 84.3746 104.67 84.2625 104.727L80.7833 106.485C80.6969 106.526 80.6136 106.501 80.5656 106.405L76.8943 99.1452C76.8463 99.0492 76.8751 98.9659 76.9583 98.9211L80.4376 97.1639C80.5496 97.1063 80.6168 97.1447 80.6649 97.2375L81.1418 98.1817V98.1881Z" fill="white"/>
<path d="M85.0558 94.2109C85.187 94.1244 85.2894 94.1596 85.3438 94.3005L88.2726 102.011C88.3174 102.136 88.2886 102.229 88.1829 102.299L87.2963 102.882C87.1907 102.952 87.0947 102.939 86.9954 102.85L81.0836 97.1012C80.9748 96.9955 80.9812 96.8899 81.1156 96.8003L81.9574 96.2466C82.063 96.1761 82.1591 96.1889 82.2583 96.2786L86.3073 100.411L84.1243 95.0495C84.0795 94.9246 84.1083 94.8318 84.214 94.7614L85.0558 94.2077V94.2109Z" fill="white"/>
<path d="M89.5596 92.0681C89.6268 92.1482 89.6428 92.2346 89.5468 92.3146L87.5175 94.0174L88.8778 95.6402L90.427 94.3407C90.507 94.2735 90.5966 94.2799 90.6734 94.3695L91.3488 95.1729C91.4224 95.2625 91.416 95.3521 91.336 95.4193L89.7868 96.7189L91.1632 98.3577L93.1925 96.6548C93.2885 96.5716 93.3557 96.5876 93.4325 96.6773L94.1143 97.4902C94.1815 97.5703 94.1911 97.6471 94.0919 97.7303L91.1056 100.237C91.0319 100.297 90.9423 100.291 90.8751 100.208L85.6482 93.9726C85.581 93.8926 85.5874 93.8029 85.661 93.7421L88.6474 91.2359C88.7434 91.1527 88.817 91.1751 88.8874 91.2583L89.5692 92.0713L89.5596 92.0681Z" fill="white"/>
<path d="M95.3406 94.535L97.0818 92.7106C97.1618 92.6273 97.2451 92.6306 97.3219 92.7042L98.0869 93.4339C98.1701 93.514 98.1733 93.5908 98.0933 93.674L95.475 96.4171C95.4014 96.4939 95.3182 96.5035 95.235 96.4235L89.3487 90.8061C89.2719 90.7325 89.2687 90.6429 89.3423 90.5661L90.1041 89.7691C90.1841 89.6858 90.2674 89.689 90.3442 89.7627L95.3406 94.5318V94.535Z" fill="white"/>
<path d="M93.5062 88.3822C92.7188 87.774 92.6227 87.0315 93.2309 86.2409L93.9575 85.303C94.5656 84.5156 95.3082 84.4196 96.0988 85.0278L100.391 88.3438C101.178 88.9519 101.274 89.6945 100.666 90.4851L99.9397 91.4229C99.3316 92.2103 98.589 92.3063 97.7984 91.6982L93.5062 88.3822ZM99.4212 89.8609C99.5908 89.6433 99.5716 89.4416 99.3444 89.2656L95.4714 86.2729C95.2538 86.1032 95.0457 86.132 94.8761 86.3497L94.5016 86.8362C94.332 87.0539 94.3608 87.2619 94.5784 87.4316L98.4514 90.4243C98.6786 90.6003 98.8771 90.5651 99.0467 90.3475L99.4212 89.8609Z" fill="white"/>
<path d="M95.3916 83.669C95.302 83.6145 95.2796 83.5281 95.334 83.4353L96.656 81.262C97.1745 80.4106 97.9011 80.2345 98.7525 80.7499L100.961 82.0942C101.803 82.6063 101.988 83.3393 101.473 84.1907L100.814 85.2758L103.096 86.6617C103.186 86.7161 103.214 86.7961 103.154 86.8954L102.581 87.8364C102.526 87.926 102.44 87.9484 102.347 87.894L95.3949 83.6658L95.3916 83.669ZM100.1 83.7554C100.247 83.5121 100.183 83.3105 99.9592 83.1728L98.2564 82.139C98.0195 81.995 97.8242 82.0366 97.6738 82.2798L97.1905 83.0768L99.6167 84.5524L100.1 83.7554Z" fill="white"/>
<path d="M100.117 74.1603C100.171 74.0354 100.271 73.997 100.395 74.0514L107.757 77.3098C107.882 77.3642 107.92 77.4635 107.866 77.5883L107.466 78.4877C107.412 78.6125 107.312 78.651 107.187 78.5965L102.828 76.6665L102.799 76.7337L106.752 79.6304C106.855 79.7104 106.883 79.8032 106.832 79.9217L106.621 80.3954C106.57 80.5106 106.48 80.5522 106.352 80.533L101.548 79.5536L101.519 79.6208L105.878 81.5477C106.003 81.6021 106.042 81.7013 105.987 81.8261L105.593 82.7159C105.539 82.8408 105.44 82.8792 105.315 82.8248L97.9532 79.5664C97.8284 79.512 97.79 79.4127 97.8444 79.2879L98.4109 78.0076C98.4621 77.8924 98.5518 77.8508 98.6798 77.8732L103.98 78.9326L99.6304 75.7222C99.528 75.6422 99.4992 75.5494 99.5504 75.431L100.117 74.1539V74.1603Z" fill="white"/>
<path d="M102.716 69.7152C102.818 69.744 102.876 69.808 102.841 69.9296L102.092 72.4678L104.124 73.0696L104.697 71.1299C104.726 71.0275 104.806 70.9859 104.918 71.0179L105.923 71.3156C106.035 71.3476 106.077 71.4276 106.048 71.53L105.475 73.4697L107.527 74.0746L108.275 71.5364C108.311 71.4148 108.375 71.3892 108.487 71.4212L109.501 71.7221C109.604 71.7509 109.652 71.8117 109.617 71.9333L108.512 75.6718C108.487 75.7646 108.407 75.8063 108.304 75.7775L100.501 73.4729C100.398 73.4441 100.357 73.3641 100.382 73.2712L101.487 69.5327C101.522 69.4111 101.595 69.3887 101.698 69.4175L102.713 69.7184L102.716 69.7152Z" fill="white"/>
<path d="M102.445 64.4775C102.464 64.3719 102.538 64.3207 102.64 64.3399L110.651 65.7483C110.757 65.7675 110.808 65.8411 110.789 65.9435L110.607 66.9774C110.591 67.0702 110.536 67.1278 110.437 67.1406L105.7 67.9536L105.69 68.0048L110.114 68.7826C110.219 68.8018 110.271 68.8626 110.251 68.9778L110.059 70.0629C110.04 70.1685 109.967 70.2197 109.864 70.2005L101.853 68.7922C101.747 68.773 101.696 68.6994 101.715 68.5969L101.897 67.5631C101.913 67.4703 101.968 67.4127 102.067 67.3999L106.779 66.5933L106.788 66.5292L102.384 65.7547C102.278 65.7354 102.227 65.6746 102.246 65.5594L102.438 64.4743L102.445 64.4775Z" fill="white"/>
<path d="M102.777 59.8299C102.784 59.7146 102.851 59.6634 102.957 59.673L104.013 59.7402C104.118 59.7466 104.179 59.8042 104.17 59.9195L104.09 61.1454L110.981 61.5903C111.096 61.5967 111.147 61.6543 111.138 61.7695L111.067 62.8674C111.061 62.973 111.003 63.0338 110.888 63.0242L103.997 62.5793L103.917 63.8052C103.91 63.9108 103.843 63.9717 103.738 63.9621L102.681 63.8948C102.576 63.8884 102.515 63.8212 102.524 63.7156L102.777 59.8267V59.8299Z" fill="white"/>
<path d="M12.4339 53.399C13.9895 53.399 15.2506 52.1379 15.2506 50.5823C15.2506 49.0267 13.9895 47.7656 12.4339 47.7656C10.8783 47.7656 9.61719 49.0267 9.61719 50.5823C9.61719 52.1379 10.8783 53.399 12.4339 53.399Z" fill="white"/>
<path d="M106.821 53.399C108.376 53.399 109.637 52.1379 109.637 50.5823C109.637 49.0267 108.376 47.7656 106.821 47.7656C105.265 47.7656 104.004 49.0267 104.004 50.5823C104.004 52.1379 105.265 53.399 106.821 53.399Z" fill="white"/>
</svg>
