<svg width="145" height="146" viewBox="0 0 145 146" fill="none" xmlns="http://www.w3.org/2000/svg">
<circle cx="72.4551" cy="72.836" r="69.8673" fill="#EBEEEA" stroke="url(#paint0_linear_16_2)" stroke-width="5"/>
<path d="M62.5 85.75C55.1943 85.75 51.5389 85.75 49.2707 83.4792C47.7982 82.0093 47.2816 79.9582 47.1008 76.7083H98.5685C98.3877 79.9582 97.8684 82.0093 96.3985 83.4792C94.1226 85.75 90.4697 85.75 83.1667 85.75H74.7708V96.0833H83.1667C83.6805 96.0833 84.1733 96.2875 84.5367 96.6508C84.9 97.0142 85.1042 97.507 85.1042 98.0208C85.1042 98.5347 84.9 99.0275 84.5367 99.3909C84.1733 99.7542 83.6805 99.9583 83.1667 99.9583H62.5C61.9861 99.9583 61.4933 99.7542 61.13 99.3909C60.7666 99.0275 60.5625 98.5347 60.5625 98.0208C60.5625 97.507 60.7666 97.0142 61.13 96.6508C61.4933 96.2875 61.9861 96.0833 62.5 96.0833H70.8958V85.75H62.5ZM67.6667 47H78C87.7418 47 92.6139 47 95.639 50.0277C98.6667 53.0527 98.6667 57.9249 98.6667 67.6667V70.25C98.6667 71.676 98.6667 72.9625 98.6512 74.125H47.0181C47 72.9625 47 71.676 47 70.25V67.6667C47 57.9249 47 53.0527 50.0277 50.0277C53.0527 47 57.9249 47 67.6667 47Z" fill="#FB4738"/>
<defs>
<linearGradient id="paint0_linear_16_2" x1="72.4551" y1="145.203" x2="72.4551" y2="39.6183" gradientUnits="userSpaceOnUse">
<stop stop-color="#441355"/>
<stop offset="1" stop-color="#703BAF" stop-opacity="0"/>
</linearGradient>
</defs>
</svg>
