<svg width="106" height="78" viewBox="0 0 106 78" fill="none" xmlns="http://www.w3.org/2000/svg">
<path d="M105.999 40.7694L105.999 65.2311C105.999 71.9581 100.496 77.4619 93.7686 77.4619L69.307 77.4619C62.58 77.4619 57.0762 71.958 57.0762 65.2311L57.0762 20.3847C57.0762 9.13235 66.2085 7.98376e-07 77.4609 1.78209e-06L93.7687 3.20776e-06C96.011 3.40379e-06 97.8456 1.79386 97.8456 4.03618C97.8456 5.42234 97.1525 6.72696 96.011 7.46081L91.0779 10.7631C87.6532 13.0462 85.6148 16.8785 85.6148 20.9555L85.6148 24.4617C85.6148 26.704 87.4494 28.5386 89.6917 28.5386L93.7687 28.5386C100.496 28.5386 105.999 34.0425 105.999 40.7694Z" fill="#642392"/>
<path d="M48.9233 40.7694L48.9233 65.2311C48.9233 71.9581 43.4194 77.4619 36.6925 77.4619L12.2308 77.4619C5.50387 77.4619 1.33862e-06 71.958 1.92671e-06 65.2311L5.84731e-06 20.3847C6.83102e-06 9.13235 9.13236 7.98376e-07 20.3847 1.78209e-06L36.6925 3.20776e-06C38.9348 3.40379e-06 40.7694 1.79386 40.7694 4.03618C40.7694 5.42234 40.0764 6.72696 38.9348 7.46081L34.0017 10.7631C30.5771 13.0462 28.5386 16.8785 28.5386 20.9555L28.5386 24.4617C28.5386 26.704 30.3732 28.5386 32.6155 28.5386L36.6925 28.5386C43.4194 28.5386 48.9233 34.0425 48.9233 40.7694Z" fill="#642392"/>
</svg>
