<svg width="105" height="105" viewBox="0 0 105 105" fill="none" xmlns="http://www.w3.org/2000/svg">
<g clip-path="url(#clip0_699_288)">
<path d="M56.0767 39.6046C58.3293 39.6046 60.1554 37.7785 60.1554 35.5259C60.1554 33.2733 58.3293 31.4473 56.0767 31.4473C53.8241 31.4473 51.998 33.2733 51.998 35.5259C51.998 37.7785 53.8241 39.6046 56.0767 39.6046Z" fill="url(#paint0_radial_699_288)"/>
<path d="M64.6716 60.5815C64.7001 60.9518 64.5377 61.3107 64.2415 61.5357L60.3537 64.438C60.1344 64.6004 59.8211 64.4893 59.7584 64.2244C59.4195 62.7917 57.984 59.502 57.8415 59.1574C56.4146 55.7566 54.5205 52.2476 51.6125 49.8836C49.8978 48.4908 47.7474 47.699 45.5315 47.7559C43.8596 47.7987 40.5158 48.4025 39.8236 50.231C38.8211 52.8827 44.039 54.5547 45.9132 54.9933C49.9918 55.9446 54.6202 58.0266 56.9472 61.6838C59.428 65.5802 57.665 70.4478 54.1559 73.0482C49.4535 76.5373 43.0165 76.8221 37.4311 77.6082C37.4311 77.6082 37.4283 77.6082 37.4254 77.6082C35.7934 77.8475 34.2411 76.8278 33.8139 75.2356C33.3211 73.4014 32.7686 71.3307 32.7686 71.3307C34.9161 71.3108 37.0751 71.1513 39.2056 70.8978C41.1395 70.6671 51.1311 69.374 47.9753 65.5403C46.3575 63.5722 42.9624 62.7974 40.5841 62.2506C40.5756 62.2506 40.567 62.2477 40.5613 62.2449C40.5613 62.2449 30.9372 60.5559 30.1909 53.2274C29.1456 42.9595 42.9396 38.7099 50.8577 41.4813C54.2271 42.6604 57.5453 44.8849 59.3739 47.8983C59.3967 47.7702 60.6698 41.2648 66.7366 33.5945C68.2347 31.7005 70.7697 30.9656 73.0454 31.7717L74.5863 32.3185C74.5863 32.3185 63.0139 39.4676 64.6688 60.5815H64.6716Z" fill="url(#paint1_linear_699_288)"/>
<path d="M52.5015 85.8799C47.9956 85.8799 43.6235 84.9969 39.5078 83.2566C35.5317 81.5762 31.9629 79.1694 28.8982 76.1047C25.8335 73.04 23.4267 69.4712 21.7463 65.4951C20.006 61.3794 19.123 57.0074 19.123 52.5015C19.123 47.9956 20.006 43.6235 21.7463 39.5078C23.4267 35.5317 25.8335 31.9629 28.8982 28.8982C31.9629 25.8335 35.5317 23.4267 39.5078 21.7463C43.6235 20.006 47.9956 19.123 52.5015 19.123C57.0074 19.123 61.3794 20.006 65.4951 21.7463C69.4712 23.4267 73.04 25.8335 76.1047 28.8982C79.1694 31.9629 81.5762 35.5317 83.2566 39.5078C84.9969 43.6235 85.8799 47.9956 85.8799 52.5015C85.8799 57.0074 84.9969 61.3794 83.2566 65.4951C81.5762 69.4712 79.1694 73.04 76.1047 76.1047C73.04 79.1694 69.4712 81.5762 65.4951 83.2566C61.3794 84.9969 57.0074 85.8799 52.5015 85.8799ZM52.5015 20.9687C35.1159 20.9687 20.9687 35.113 20.9687 52.5015C20.9687 69.8899 35.113 84.0342 52.5015 84.0342C69.8899 84.0342 84.0342 69.8899 84.0342 52.5015C84.0342 35.113 69.8899 20.9687 52.5015 20.9687Z" fill="url(#paint2_linear_699_288)"/>
<path d="M52.5014 105C45.415 105 38.5394 103.613 32.0654 100.873C25.8135 98.2297 20.1996 94.4445 15.3776 89.6224C10.5555 84.8003 6.77024 79.1865 4.12708 72.9346C1.38709 66.4634 0 59.5878 0 52.5014C0 45.415 1.38709 38.5394 4.12708 32.0654C6.77024 25.8135 10.5555 20.1996 15.3776 15.3776C20.1996 10.5555 25.8135 6.77024 32.0654 4.12708C38.5365 1.38709 45.4122 0 52.5014 0C59.5907 0 66.4634 1.38709 72.9375 4.12708C79.1893 6.77024 84.8032 10.5555 89.6253 15.3776C94.4473 20.1996 98.2326 25.8135 100.876 32.0654C103.613 38.5394 105.003 45.415 105.003 52.5014C105.003 59.5878 103.616 66.4634 100.876 72.9375C98.2326 79.1893 94.4473 84.8032 89.6253 89.6253C84.8032 94.4473 79.1893 98.2326 72.9375 100.876C66.4634 103.613 59.5878 105.003 52.5014 105.003V105ZM52.5014 1.84565C24.5688 1.84565 1.84565 24.5688 1.84565 52.5014C1.84565 80.434 24.5688 103.154 52.4986 103.154C80.4283 103.154 103.151 80.4312 103.151 52.5014C103.151 24.5717 80.4312 1.84565 52.5014 1.84565Z" fill="url(#paint3_linear_699_288)"/>
<path d="M21.0883 31.6921L17.8043 29.9035C17.5337 29.7553 17.3087 29.7981 17.078 29.9861L14.1272 32.7659L12.1648 31.6978C11.7945 31.4956 11.7119 31.1738 11.9056 30.8206L12.2787 30.137C12.4867 29.7525 12.7886 29.6756 13.156 29.8778L14.264 30.4816C14.4064 30.5585 14.5374 30.5215 14.6143 30.3791L15.4203 28.9009C15.5058 28.7442 15.4602 28.6274 15.3178 28.5505L13.8111 27.7303C12.4753 27.0011 11.3759 27.3258 10.6496 28.6616L9.78084 30.2538C9.06024 31.5754 9.3764 32.689 10.7122 33.4153L14.0674 35.2439C14.338 35.392 14.5773 35.355 14.8023 35.147L17.7473 32.3814L19.6386 33.4125C20.0231 33.6204 20.1 33.9223 19.8978 34.2897L19.5246 34.9733C19.331 35.3293 19.029 35.4404 18.6474 35.2325L17.5537 34.6372C17.397 34.5518 17.2888 34.5831 17.2033 34.7397L16.3973 36.218C16.3204 36.3604 16.3432 36.4829 16.4998 36.5683L17.9923 37.3829C19.3281 38.1121 20.4332 37.7731 21.1538 36.4515L22.0225 34.8594C22.7517 33.5236 22.427 32.4241 21.0912 31.6978L21.0883 31.6921Z" fill="url(#paint4_linear_699_288)"/>
<path d="M20.6033 16.568C20.4495 16.4256 20.29 16.4313 20.1447 16.5851L18.6893 18.1488C18.5583 18.2912 18.5497 18.4393 18.6608 18.6074L23.3376 25.4146L16.2113 21.2391C16.0347 21.1423 15.8866 21.1594 15.7556 21.3018L14.3001 22.8655C14.1577 23.0193 14.1634 23.1788 14.3172 23.324L23.3233 31.7035C23.4771 31.8459 23.6366 31.8402 23.7819 31.6864L24.7959 30.5956C24.9383 30.4418 24.9326 30.2823 24.7788 30.137L19.4469 25.1754L19.5238 25.0928L25.9722 28.9037C26.1488 29.0006 26.2969 28.9835 26.4279 28.8411L26.9691 28.26C27.1001 28.1176 27.1086 27.9695 26.9976 27.8015L22.7338 21.6464L22.8107 21.5638L28.1425 26.5254C28.2964 26.6679 28.4559 26.6622 28.6011 26.5084L29.6265 25.4061C29.7689 25.2523 29.7632 25.0928 29.6094 24.9475L20.6033 16.568Z" fill="url(#paint5_linear_699_288)"/>
<path d="M28.1153 11.2246C28.0014 11.1049 27.8846 11.1021 27.7621 11.179L25.8595 12.3809C25.737 12.4578 25.6886 12.5661 25.7484 12.7199L30.1233 24.6796C30.1774 24.8562 30.297 24.8961 30.448 24.7992L31.912 23.8736C32.0344 23.7967 32.0601 23.6827 32.0088 23.5432L31.1173 21.313L33.5526 19.775L35.1988 21.5323C35.3042 21.6377 35.4153 21.6633 35.5378 21.5864L36.9875 20.6693C37.1527 20.5668 37.1556 20.45 37.0331 20.3161L28.1153 11.2274V11.2246ZM30.4565 19.5101L28.3175 14.181L32.211 18.405L30.4594 19.5101H30.4565Z" fill="url(#paint6_linear_699_288)"/>
<path d="M41.6901 14.2009C42.3138 13.6284 42.4676 12.8224 42.1144 11.797L40.8356 8.06013C40.3428 6.62178 39.3146 6.11764 37.8763 6.61038L34.034 7.92626C33.8802 7.97753 33.8204 8.10285 33.8717 8.25381L37.8991 20.0142C37.9503 20.168 38.0757 20.2278 38.2266 20.1765L39.8188 19.6325C39.9726 19.5812 40.0324 19.4559 39.9811 19.3049L38.6595 15.4456L39.7162 15.0839L42.0746 18.6214C42.1515 18.7495 42.254 18.798 42.4078 18.7467L44 18.2027C44.168 18.1457 44.2278 18.0204 44.1196 17.8523L41.6901 14.2009ZM39.4827 12.9021L37.9674 13.4205L36.5632 9.3162L38.0785 8.79782C38.4773 8.66111 38.7649 8.80352 38.9016 9.19942L39.8871 12.079C40.0238 12.4777 39.8814 12.7654 39.4855 12.9021H39.4827Z" fill="url(#paint7_linear_699_288)"/>
<path d="M49.602 4.34046L43.689 5.06391C43.5295 5.08385 43.4441 5.19208 43.464 5.35159L43.6606 6.95799C43.6805 7.11749 43.7887 7.20293 43.9482 7.183L45.811 6.95514L47.0898 17.4309C47.1126 17.6075 47.218 17.6759 47.3775 17.6559L49.0494 17.4509C49.226 17.4281 49.2972 17.3398 49.2744 17.1632L47.9956 6.68741L49.8583 6.45955C50.0349 6.43676 50.1033 6.33138 50.0833 6.17188L49.8868 4.56547C49.8669 4.40597 49.7757 4.31768 49.5991 4.34046H49.602Z" fill="url(#paint8_linear_699_288)"/>
<path d="M65.5036 6.00114L63.9969 5.69923C63.8061 5.6622 63.675 5.73341 63.5896 5.9157L60.2031 14.0844L60.2401 5.24351C60.2315 5.04414 60.1375 4.92736 59.9467 4.88749L58.44 4.58557C58.2008 4.53715 58.0811 4.64539 58.084 4.87609L58.3346 17.471C58.3432 17.6703 58.4372 17.7871 58.628 17.827L60.2145 18.146C60.4053 18.183 60.5363 18.1118 60.6217 17.9295L65.7201 6.40559C65.8112 6.19197 65.7429 6.04671 65.5036 5.99829V6.00114Z" fill="url(#paint9_linear_699_288)"/>
<path d="M70.4481 7.80974L68.8759 7.21161C68.7107 7.14895 68.5996 7.21161 68.5427 7.36257L64.1222 18.9805C64.0653 19.1315 64.1051 19.2511 64.2732 19.3137L65.8454 19.9119C65.9964 19.9688 66.1217 19.9119 66.1786 19.7609L70.5991 8.14298C70.6561 7.99203 70.5991 7.8667 70.4481 7.80974Z" fill="url(#paint10_linear_699_288)"/>
<path d="M75.8753 18.3251C76.0291 18.0573 75.992 17.8323 75.8098 17.5959L73.0982 14.5825L74.2119 12.6457C74.4227 12.2811 74.7445 12.2042 75.0949 12.4064L75.7699 12.7938C76.1487 13.0103 76.2171 13.3122 76.0091 13.6767L75.3797 14.7705C75.2999 14.91 75.3341 15.0439 75.4765 15.1236L76.9348 15.961C77.0886 16.0493 77.2082 16.0066 77.288 15.8642L78.1425 14.3774C78.9001 13.0587 78.601 11.9536 77.2823 11.1959L75.7101 10.293C74.4056 9.54396 73.2862 9.83448 72.5286 11.1532L70.626 14.4657C70.4722 14.7334 70.5035 14.9727 70.7057 15.2034L73.403 18.2083L72.3292 20.0739C72.1128 20.4527 71.8108 20.521 71.4463 20.3131L70.7712 19.9258C70.4209 19.7235 70.3155 19.4216 70.532 19.0428L71.1529 17.9633C71.2412 17.8095 71.2127 17.6984 71.0561 17.6101L69.5978 16.7699C69.4582 16.6902 69.3329 16.7101 69.2446 16.8668L68.3987 18.3393C67.641 19.658 67.9515 20.7717 69.2588 21.5208L70.831 22.4237C72.1498 23.1813 73.2549 22.8822 74.0125 21.5635L75.8753 18.3222V18.3251Z" fill="url(#paint11_linear_699_288)"/>
<path d="M83.3806 15.5455L82.0704 14.4888C81.9308 14.3777 81.8083 14.4005 81.7058 14.5287L73.896 24.1984C73.7934 24.3237 73.7963 24.4519 73.9358 24.563L75.246 25.6197C75.3713 25.7222 75.5081 25.708 75.6106 25.5798L83.4204 15.9101C83.523 15.7847 83.5087 15.648 83.3806 15.5455Z" fill="url(#paint12_linear_699_288)"/>
<path d="M88.6512 24.1697C89.7791 23.15 89.8389 22.0079 88.8192 20.8771L87.603 19.5327C86.5834 18.4048 85.4412 18.345 84.3105 19.3647L78.1612 24.9216C77.0333 25.9413 76.9734 27.0834 77.9931 28.2141L79.2093 29.5585C80.229 30.6864 81.3711 30.7462 82.5019 29.7266L88.6512 24.1697ZM80.4882 27.8581L79.8587 27.1603C79.5767 26.847 79.5796 26.5394 79.9043 26.246L85.4526 21.2331C85.7659 20.9512 86.0849 20.9682 86.3669 21.2787L86.9964 21.9765C87.2783 22.2898 87.2613 22.6088 86.9508 22.8908L81.4024 27.9037C81.0777 28.1971 80.7701 28.1686 80.4882 27.8581Z" fill="url(#paint13_linear_699_288)"/>
<path d="M95.9487 31.5038L95.117 30.0398C95.0287 29.886 94.9034 29.8632 94.7638 29.9429L88.8253 33.3181L88.7769 33.2326L93.5419 27.6957C93.6445 27.5818 93.653 27.465 93.5818 27.3397L92.79 25.9469C92.7103 25.8073 92.5764 25.7703 92.4368 25.85L81.6306 31.9937C81.4911 32.0734 81.4541 32.2073 81.5338 32.3468L82.3655 33.8108C82.4538 33.9646 82.5791 33.9874 82.7187 33.9077L88.6857 30.5154L88.7256 30.5866L83.9406 36.1549C83.838 36.2689 83.8295 36.3856 83.9007 36.511L84.6925 37.9037C84.7722 38.0433 84.9061 38.0803 85.0457 38.0006L95.8519 31.8569C95.9914 31.7772 96.0284 31.6433 95.9487 31.5038Z" fill="url(#paint14_linear_699_288)"/>
<path d="M12.847 58.2636C12.753 58.2722 12.6904 58.2209 12.6818 58.1269L12.4568 55.7999L10.5713 55.9822L10.7422 57.7453C10.7507 57.8392 10.6995 57.9019 10.6055 57.9104L9.6684 58.0016C9.56586 58.013 9.51175 57.9589 9.5032 57.8649L9.33231 56.1018L6.33882 56.3923C6.24483 56.4009 6.18216 56.3496 6.17362 56.2556L6.07963 55.2787C6.06824 55.1761 6.12235 55.122 6.21634 55.1135L13.4224 54.4157C13.5164 54.4071 13.5762 54.447 13.5876 54.5524L13.9237 58.0044C13.9322 58.0984 13.8809 58.1611 13.7869 58.1696L12.8499 58.2608L12.847 58.2636Z" fill="url(#paint15_linear_699_288)"/>
<path d="M12.6505 58.7221C13.5192 58.5455 14.0746 58.9101 14.2541 59.7788L14.4648 60.8127C14.6414 61.6814 14.2769 62.2368 13.4082 62.4162L8.68009 63.3846C7.81138 63.5612 7.25598 63.1967 7.07654 62.328L6.86577 61.294C6.68918 60.4253 7.05375 59.8699 7.92246 59.6905L12.6505 58.7221ZM8.22153 61.8523C8.26995 62.0915 8.41805 62.1969 8.66585 62.1457L12.9325 61.2713C13.1717 61.2228 13.2743 61.0662 13.2259 60.8269L13.1148 60.2915C13.0664 60.0522 12.9097 59.9497 12.6705 59.9981L8.40381 60.8725C8.15317 60.9238 8.06202 61.0776 8.11044 61.3168L8.22153 61.8523Z" fill="url(#paint16_linear_699_288)"/>
<path d="M12.5986 67.4974C11.9976 67.694 11.5305 67.5971 11.203 67.2297L9.0554 68.6139C8.95571 68.6766 8.8845 68.6396 8.85317 68.5399L8.54841 67.6085C8.51993 67.5202 8.54841 67.4604 8.62531 67.4148L10.7045 66.0733L10.5023 65.4553L8.24365 66.1929C8.15536 66.2214 8.0813 66.1873 8.05282 66.0961L7.74806 65.1647C7.71958 65.0764 7.75376 65.0024 7.8449 64.9739L14.7291 62.7295C14.8174 62.701 14.8886 62.7352 14.9199 62.8263L15.6547 65.0764C15.9282 65.9195 15.6263 66.512 14.786 66.7882L12.5986 67.5003V67.4974ZM11.9777 65.9565C12.0546 66.1901 12.2198 66.2727 12.4533 66.1986L14.1395 65.6489C14.373 65.572 14.4556 65.4068 14.3816 65.1733L14.0911 64.2875L11.69 65.0707L11.9805 65.9594L11.9777 65.9565Z" fill="url(#paint17_linear_699_288)"/>
<path d="M16.7898 73.3193C16.7072 73.362 16.6303 73.3392 16.5876 73.2566L16.149 72.4221C16.1006 72.331 16.129 72.2626 16.2116 72.2199L16.881 71.8695C17.0974 71.7556 17.1544 71.579 17.0405 71.3597L16.8126 70.9268C16.6958 70.7018 16.5221 70.6533 16.3028 70.7673L12.4947 72.761C12.2697 72.8778 12.2213 73.0516 12.3352 73.2709L12.5631 73.7038C12.677 73.9203 12.8479 73.9801 13.0729 73.8633L13.7422 73.513C13.8248 73.4702 13.8989 73.4845 13.9445 73.5756L14.3831 74.4102C14.4258 74.4928 14.403 74.5697 14.3204 74.6124L13.4175 75.0852C12.6314 75.4953 11.9934 75.2903 11.5861 74.5127L11.0962 73.5785C10.6861 72.7924 10.8798 72.1487 11.663 71.7385L15.9382 69.4998C16.7243 69.0897 17.3623 69.2947 17.7753 70.0809L18.2652 71.0151C18.6725 71.7926 18.4788 72.4363 17.6927 72.8465L16.7898 73.3193Z" fill="url(#paint18_linear_699_288)"/>
<path d="M18.0539 73.4588C18.7888 72.9632 19.4438 73.0914 19.9366 73.8291L20.5262 74.7063C21.0218 75.4412 20.8936 76.0963 20.1559 76.589L16.1513 79.2834C15.4165 79.779 14.7614 79.6509 14.2686 78.916L13.679 78.0388C13.1834 77.3039 13.3116 76.6488 14.0493 76.1561L18.0539 73.4617V73.4588ZM15.1459 78.0388C15.2826 78.241 15.4592 78.2837 15.6699 78.1413L19.2843 75.7118C19.4866 75.5751 19.5236 75.3928 19.3869 75.1877L19.0821 74.7348C18.9454 74.5326 18.7631 74.4956 18.558 74.6323L14.9436 77.0618C14.7329 77.2042 14.7044 77.3808 14.8411 77.5859L15.1459 78.0388Z" fill="url(#paint19_linear_699_288)"/>
<path d="M24.126 79.2178C24.1858 79.289 24.1801 79.3688 24.1089 79.4314L18.6005 84.131C18.5293 84.1908 18.4495 84.1851 18.3868 84.1139L17.7802 83.4047C17.7261 83.3392 17.7175 83.2737 17.7631 83.1968L19.8879 79.4884L19.8565 79.4514L16.8175 82.0461C16.7463 82.1059 16.6722 82.1088 16.6038 82.029L15.9687 81.2828C15.9089 81.2116 15.9146 81.1318 15.9858 81.0692L21.4943 76.3696C21.5655 76.3098 21.6452 76.3155 21.7079 76.3867L22.3145 77.0959C22.3687 77.1614 22.3772 77.2269 22.3316 77.3038L20.2126 80.9951L20.2496 81.0378L23.2744 78.4545C23.3456 78.3947 23.4197 78.3918 23.488 78.4716L24.1232 79.2178H24.126Z" fill="url(#paint20_linear_699_288)"/>
<path d="M26.3727 81.3683C27.0221 81.9722 27.0449 82.6386 26.4411 83.288L25.7603 84.02C25.6948 84.0884 25.6236 84.0998 25.5467 84.0286L24.829 83.3621C24.7606 83.2966 24.7577 83.2168 24.8204 83.1485L25.3217 82.6102C25.4897 82.4307 25.4897 82.2513 25.3018 82.0775L24.9714 81.7699C24.7976 81.6104 24.6039 81.6104 24.4387 81.7899L23.5529 82.7412L24.6951 84.809C24.7663 84.9657 24.7577 85.0995 24.6381 85.2305L23.1542 86.8255C22.5504 87.4749 21.8839 87.4977 21.2345 86.8939L20.4626 86.1761C19.8218 85.578 19.7904 84.9058 20.3943 84.2564L21.0693 83.533C21.1405 83.4561 21.2146 83.4618 21.2829 83.5244L22.0007 84.1909C22.0776 84.2621 22.0804 84.3276 22.0092 84.4045L21.5136 84.9372C21.3399 85.1223 21.3598 85.3103 21.5336 85.4698L21.8639 85.7774C22.0434 85.9454 22.2228 85.9454 22.3966 85.7575L23.251 84.8403L22.1174 82.7811C22.032 82.6244 22.0462 82.482 22.1687 82.351L23.684 80.7218C24.2878 80.0724 24.96 80.0553 25.6037 80.6534L26.3755 81.374L26.3727 81.3683Z" fill="url(#paint21_linear_699_288)"/>
<path d="M30.6745 84.7805C30.7571 84.8432 30.7741 84.9599 30.7143 85.0454L27.1455 89.8646C26.6186 90.5766 25.9578 90.6763 25.2457 90.1466L24.397 89.5171C23.6849 88.9902 23.5852 88.3294 24.115 87.6173L27.6838 82.7981C27.7465 82.7155 27.8633 82.6984 27.9487 82.7582L28.675 83.2966C28.7576 83.3592 28.7747 83.476 28.7149 83.5614L25.3027 88.167C25.1517 88.3721 25.1831 88.5487 25.3824 88.694L25.7755 88.9845C25.972 89.1297 26.1515 89.1098 26.3024 88.9047L29.7146 84.2991C29.7773 84.2165 29.894 84.1994 29.9795 84.2593L30.6773 84.7748L30.6745 84.7805Z" fill="url(#paint22_linear_699_288)"/>
<path d="M29.2386 91.2857L31.1782 92.4136C31.2665 92.4648 31.2808 92.5389 31.2323 92.6186L30.7595 93.4332C30.7083 93.5215 30.6428 93.5386 30.5545 93.4873L27.6379 91.7898C27.5553 91.7414 27.5325 91.673 27.5838 91.5847L31.2238 85.3272C31.2722 85.2446 31.3491 85.2246 31.4289 85.2731L32.2776 85.7658C32.3659 85.8171 32.3802 85.8911 32.3318 85.9709L29.2414 91.2828L29.2386 91.2857Z" fill="url(#paint23_linear_699_288)"/>
<path d="M37.3219 88.3805C37.4158 88.426 37.4329 88.4973 37.3931 88.5827L36.9886 89.4343C36.9487 89.5198 36.8804 89.5511 36.7864 89.5055L35.798 89.0356L33.1606 94.5868C33.115 94.6808 33.0524 94.7035 32.9584 94.658L32.0726 94.2364C31.9871 94.1966 31.9558 94.1282 32.0014 94.0342L34.6388 88.483L33.6505 88.0131C33.565 87.9732 33.5394 87.8963 33.5793 87.8108L33.9837 86.9592C34.0236 86.8738 34.1005 86.8481 34.186 86.888L37.319 88.3776L37.3219 88.3805Z" fill="url(#paint24_linear_699_288)"/>
<path d="M37.82 96.598C37.7402 96.5696 37.7117 96.5097 37.7231 96.4214L37.9453 95.0372L36.3674 94.4647L35.6581 95.6724C35.6126 95.7464 35.5499 95.7749 35.4702 95.7464L34.5217 95.4018C34.4249 95.3676 34.3992 95.2964 34.4619 95.2081L38.4038 88.9278C38.4551 88.8452 38.5206 88.8281 38.6004 88.8594L39.8308 89.3066C39.9106 89.335 39.9504 89.3892 39.9362 89.486L38.9365 96.8344C38.9194 96.937 38.8653 96.9797 38.757 96.9398L37.8171 96.598H37.82ZM38.6488 90.631L36.9598 93.5191L38.0934 93.9292L38.6488 90.631Z" fill="url(#paint25_linear_699_288)"/>
<path d="M45.5621 90.8416C45.6533 90.8616 45.696 90.9299 45.6761 91.0239L44.044 98.079C44.0241 98.1701 43.9557 98.2128 43.8617 98.1929L42.9531 97.9821C42.8705 97.9622 42.825 97.9138 42.8164 97.8255L42.318 93.5788L42.2724 93.5674L41.3724 97.4609C41.3524 97.5521 41.2926 97.5976 41.1901 97.5748L40.2359 97.3527C40.1448 97.3327 40.1021 97.2644 40.122 97.1704L41.754 90.1153C41.774 90.0242 41.8423 89.9815 41.9363 90.0014L42.8449 90.2122C42.9275 90.2321 42.9731 90.2805 42.9816 90.3688L43.4744 94.5956L43.5285 94.607L44.4257 90.7305C44.4456 90.6394 44.5054 90.5938 44.608 90.6166L45.5621 90.8388V90.8416Z" fill="url(#paint26_linear_699_288)"/>
<path d="M49.7373 93.7494C49.7259 93.8434 49.6632 93.8918 49.5692 93.8832L48.6322 93.7779C48.5296 93.7665 48.4897 93.7038 48.4983 93.6098L48.5837 92.8607C48.6122 92.6186 48.4954 92.4705 48.2505 92.442L47.7634 92.3879C47.51 92.3594 47.3732 92.4762 47.3448 92.7212L46.8577 96.9907C46.8292 97.2441 46.946 97.3809 47.191 97.4093L47.678 97.4663C47.9229 97.4948 48.0654 97.3866 48.0967 97.1331L48.1821 96.384C48.1935 96.29 48.2448 96.2387 48.3502 96.2501L49.2873 96.3555C49.3812 96.3669 49.4297 96.4296 49.4211 96.5236L49.3072 97.5347C49.2075 98.4148 48.6749 98.8278 47.8062 98.7309L46.758 98.6113C45.8779 98.5116 45.4535 97.9875 45.5532 97.1074L46.1001 92.311C46.1998 91.4309 46.7324 91.0179 47.6125 91.1176L48.6606 91.2372C49.5322 91.3369 49.9566 91.8581 49.8569 92.7383L49.743 93.7494H49.7373Z" fill="url(#paint27_linear_699_288)"/>
<path d="M54.865 91.4199C55.0074 91.4199 55.0729 91.5054 55.016 91.6364L53.3013 95.8347L53.3099 98.7769C53.3099 98.8994 53.2444 98.9649 53.1219 98.9649H52.2162C52.0937 98.9649 52.0282 98.9022 52.0282 98.7797L52.0196 95.8375L50.2822 91.6478C50.2252 91.5168 50.2908 91.4313 50.4332 91.4313H51.3759C51.4899 91.4285 51.5554 91.474 51.5924 91.5794L52.6548 94.2824L53.7029 91.5737C53.74 91.4712 53.8055 91.4228 53.9194 91.4228H54.8622L54.865 91.4199Z" fill="url(#paint28_linear_699_288)"/>
<path d="M60.443 90.6223C60.5626 90.5995 60.6395 90.6536 60.6623 90.7732L60.819 91.6249C60.8417 91.7445 60.7876 91.8214 60.668 91.8442L59.2496 92.1062C58.9989 92.1518 58.9021 92.3056 58.9477 92.5448L59.1414 93.593C59.1841 93.8237 59.3379 93.9319 59.58 93.8864L60.443 93.7269L60.3746 93.3566C60.3519 93.237 60.406 93.1601 60.5256 93.1373L61.4057 92.9749C61.5253 92.9521 61.6022 93.0063 61.625 93.1259L61.6934 93.4962L62.0836 93.4249C62.2032 93.4022 62.2801 93.4563 62.3029 93.5759L62.4595 94.4275C62.4823 94.5471 62.4282 94.624 62.3086 94.6468L61.9184 94.718L62.4738 97.7201C62.4966 97.8397 62.4425 97.9166 62.3228 97.9394L60.1354 98.3438C59.2638 98.5062 58.7056 98.1302 58.5432 97.2587L58.21 95.4614C58.1473 95.1196 58.3495 94.812 58.6714 94.6953V94.6782C58.3239 94.6839 58.0248 94.4702 57.9622 94.1285L57.6631 92.5164C57.5008 91.6448 57.8881 91.0951 58.7597 90.9327L60.4373 90.6223H60.443ZM59.805 95.1111C59.5543 95.1567 59.4575 95.3105 59.5031 95.5497L59.7281 96.7745C59.7737 97.0251 59.9275 97.1219 60.1667 97.0764L61.0297 96.9169L60.6652 94.9516L59.8021 95.1111H59.805Z" fill="url(#paint29_linear_699_288)"/>
<path d="M64.3601 89.7821C64.3259 89.6938 64.3516 89.6255 64.4484 89.5884L66.5675 88.7966C67.3963 88.4862 68.0087 88.771 68.3163 89.6027L70.0024 94.1143C70.3129 94.9431 70.0366 95.5498 69.2049 95.8602L67.0858 96.652C66.989 96.6891 66.9292 96.6606 66.8922 96.5637L64.3572 89.7821H64.3601ZM68.5242 94.7865C68.7549 94.701 68.8347 94.5387 68.7464 94.3022L67.2454 90.2834C67.1571 90.0441 66.9862 89.9672 66.7555 90.0527L65.9437 90.3574L67.7125 95.0912L68.5242 94.7865Z" fill="url(#paint30_linear_699_288)"/>
<path d="M72.2046 87.3721C72.2473 87.4576 72.2445 87.5316 72.1419 87.5829L70.0399 88.6453L70.8915 90.3286L72.4979 89.5169C72.5834 89.4741 72.6574 89.4998 72.7059 89.5909L73.1274 90.4226C73.173 90.5137 73.1502 90.5906 73.0647 90.6334L71.4583 91.4451L72.3185 93.1455L74.4205 92.0831C74.5202 92.0318 74.5772 92.0575 74.6227 92.1486L75.0471 92.9889C75.0898 93.0743 75.0813 93.1398 74.9816 93.1911L71.8856 94.7548C71.8087 94.7918 71.7346 94.769 71.6919 94.6835L68.425 88.2238C68.3823 88.1383 68.4079 88.0643 68.4819 88.0244L71.578 86.4607C71.6777 86.4094 71.7375 86.4436 71.7802 86.5262L72.2046 87.3664V87.3721Z" fill="url(#paint31_linear_699_288)"/>
<path d="M75.688 83.8317C75.8048 83.7548 75.896 83.7861 75.9444 83.9114L78.5505 90.7728C78.5904 90.8839 78.5647 90.9665 78.4708 91.0292L77.6818 91.5475C77.5878 91.6102 77.5024 91.5988 77.4141 91.5191L72.1534 86.4036C72.0565 86.3096 72.0622 86.2157 72.1819 86.1359L72.9309 85.6432C73.0249 85.5805 73.1104 85.5919 73.1987 85.6716L76.8017 89.3487L74.8592 84.5779C74.8193 84.4668 74.845 84.3842 74.9389 84.3216L75.688 83.8288V83.8317Z" fill="url(#paint32_linear_699_288)"/>
<path d="M79.6921 81.9268C79.7519 81.998 79.7662 82.0749 79.6807 82.1461L77.8749 83.6613L79.0854 85.1054L80.464 83.949C80.5352 83.8892 80.6149 83.8949 80.6833 83.9746L81.2843 84.6895C81.3498 84.7693 81.3441 84.849 81.2729 84.9088L79.8943 86.0652L81.1191 87.5235L82.9248 86.0083C83.0103 85.9342 83.0701 85.9485 83.1385 86.0282L83.7451 86.7517C83.8049 86.8229 83.8135 86.8912 83.7252 86.9653L81.0678 89.1954C81.0023 89.2496 80.9225 89.2439 80.8627 89.1698L76.2116 83.6215C76.1517 83.5502 76.1574 83.4705 76.223 83.4164L78.8804 81.1862C78.9658 81.1122 79.0313 81.1321 79.094 81.2061L79.7006 81.9296L79.6921 81.9268Z" fill="url(#paint33_linear_699_288)"/>
<path d="M84.8381 84.1224L86.3875 82.4989C86.4588 82.4248 86.5328 82.4277 86.6012 82.4932L87.2819 83.1426C87.3559 83.2138 87.3588 83.2822 87.2876 83.3562L84.9577 85.7971C84.8922 85.8655 84.8182 85.874 84.7441 85.8028L79.5062 80.8042C79.4379 80.7387 79.435 80.6589 79.5005 80.5906L80.1784 79.8814C80.2496 79.8073 80.3237 79.8102 80.392 79.8757L84.8381 84.1195V84.1224Z" fill="url(#paint34_linear_699_288)"/>
<path d="M83.2077 78.6479C82.5071 78.1068 82.4216 77.446 82.9628 76.7425L83.6093 75.9079C84.1505 75.2073 84.8113 75.1218 85.5148 75.663L89.3343 78.6137C90.0349 79.1549 90.1204 79.8157 89.5792 80.5192L88.9327 81.3537C88.3915 82.0544 87.7307 82.1398 87.0272 81.5987L83.2077 78.6479ZM88.4713 79.9638C88.6222 79.7701 88.6051 79.5907 88.4029 79.434L84.9565 76.7709C84.7629 76.62 84.5777 76.6456 84.4268 76.8393L84.0935 77.2722C83.9426 77.4659 83.9682 77.651 84.1619 77.802L87.6082 80.4651C87.8105 80.6217 87.9871 80.5904 88.138 80.3967L88.4713 79.9638Z" fill="url(#paint35_linear_699_288)"/>
<path d="M84.884 74.4528C84.8043 74.4044 84.7843 74.3275 84.8328 74.2449L86.0091 72.311C86.4705 71.5533 87.117 71.3967 87.8747 71.8552L89.8399 73.0515C90.589 73.5072 90.7542 74.1595 90.2957 74.9171L89.7089 75.8826L91.7397 77.1159C91.8195 77.1643 91.8451 77.2355 91.791 77.3238L91.2811 78.1612C91.2327 78.241 91.1558 78.2609 91.0732 78.2125L84.8869 74.45L84.884 74.4528ZM89.0738 74.5297C89.2048 74.3133 89.1478 74.1338 88.9484 74.0113L87.4332 73.0914C87.2224 72.9632 87.0487 73.0002 86.9148 73.2167L86.4847 73.9259L88.6437 75.2389L89.0738 74.5297Z" fill="url(#paint36_linear_699_288)"/>
<path d="M89.0884 65.9938C89.1368 65.8827 89.2251 65.8485 89.3362 65.8969L95.8871 68.7964C95.9982 68.8448 96.0324 68.9331 95.984 69.0442L95.628 69.8446C95.5795 69.9557 95.4912 69.9898 95.3802 69.9414L91.5009 68.2239L91.4752 68.2837L94.9928 70.8614C95.0839 70.9326 95.1096 71.0152 95.064 71.1206L94.876 71.5421C94.8304 71.6446 94.7507 71.6817 94.6368 71.6646L90.3616 70.793L90.3359 70.8528L94.2152 72.5675C94.3263 72.6159 94.3605 72.7042 94.3121 72.8153L93.9617 73.6071C93.9133 73.7182 93.825 73.7523 93.7139 73.7039L87.163 70.8044C87.0519 70.756 87.0178 70.6677 87.0662 70.5566L87.5703 69.4173C87.6159 69.3148 87.6956 69.2778 87.8096 69.2977L92.5262 70.2405L88.6555 67.3837C88.5643 67.3125 88.5387 67.2299 88.5843 67.1245L89.0884 65.9881V65.9938Z" fill="url(#paint37_linear_699_288)"/>
<path d="M91.4012 62.0376C91.4924 62.0632 91.5436 62.1202 91.5123 62.2284L90.8458 64.4871L92.6544 65.0225L93.1643 63.2965C93.1899 63.2054 93.2611 63.1683 93.3608 63.1968L94.2551 63.4617C94.3548 63.4902 94.3919 63.5614 94.3662 63.6525L93.8564 65.3786L95.6821 65.9169L96.3486 63.6582C96.3799 63.55 96.4369 63.5272 96.5366 63.5557L97.4395 63.8234C97.5306 63.8491 97.5733 63.9032 97.542 64.0114L96.5594 67.3381C96.5366 67.4207 96.4654 67.4578 96.3742 67.4321L89.4302 65.3814C89.3391 65.3558 89.3021 65.2846 89.3248 65.202L90.3075 61.8752C90.3388 61.767 90.4043 61.7471 90.4955 61.7727L91.3984 62.0404L91.4012 62.0376Z" fill="url(#paint38_linear_699_288)"/>
<path d="M91.1588 57.375C91.1759 57.281 91.2414 57.2355 91.3325 57.2526L98.4617 58.5058C98.5556 58.5229 98.6012 58.5884 98.5841 58.6795L98.4218 59.5995C98.4075 59.6821 98.3591 59.7334 98.2708 59.7448L94.0554 60.4682L94.0469 60.5138L97.9831 61.2059C98.0771 61.223 98.1227 61.2771 98.1056 61.3796L97.9347 62.3452C97.9176 62.4392 97.8521 62.4848 97.761 62.4677L90.6319 61.2144C90.5379 61.1974 90.4923 61.1318 90.5094 61.0407L90.6717 60.1207C90.686 60.0381 90.7344 59.9869 90.8227 59.9755L95.0153 59.2577L95.0238 59.2007L91.1047 58.5115C91.0107 58.4944 90.9651 58.4403 90.9822 58.3377L91.1531 57.3722L91.1588 57.375Z" fill="url(#paint39_linear_699_288)"/>
<path d="M91.4544 53.2392C91.4601 53.1367 91.5199 53.0911 91.6139 53.0996L92.5538 53.1595C92.6478 53.1652 92.7019 53.2164 92.6934 53.319L92.6222 54.4098L98.7544 54.8057C98.857 54.8114 98.9025 54.8627 98.894 54.9652L98.8313 55.9422C98.8256 56.0362 98.7744 56.0903 98.6718 56.0817L92.5396 55.6858L92.4684 56.7767C92.4627 56.8707 92.4029 56.9248 92.3089 56.9163L91.369 56.8565C91.275 56.8508 91.2209 56.791 91.2294 56.697L91.4544 53.2364V53.2392Z" fill="url(#paint40_linear_699_288)"/>
<path d="M95.0572 47.5168C96.4415 47.5168 97.5637 46.3946 97.5637 45.0103C97.5637 43.6261 96.4415 42.5039 95.0572 42.5039C93.673 42.5039 92.5508 43.6261 92.5508 45.0103C92.5508 46.3946 93.673 47.5168 95.0572 47.5168Z" fill="url(#paint41_radial_699_288)"/>
</g>
<defs>
<radialGradient id="paint0_radial_699_288" cx="0" cy="0" r="1" gradientUnits="userSpaceOnUse" gradientTransform="translate(56.0767 35.5259) scale(4.07867)">
<stop stop-color="#F7941D"/>
<stop offset="1" stop-color="#F7331D"/>
</radialGradient>
<linearGradient id="paint1_linear_699_288" x1="62.0455" y1="27.4025" x2="39.5046" y2="70.4535" gradientUnits="userSpaceOnUse">
<stop stop-color="#880ADC"/>
<stop offset="1" stop-color="#5C2783"/>
</linearGradient>
<linearGradient id="paint2_linear_699_288" x1="30.3251" y1="100.195" x2="73.7379" y2="6.82154" gradientUnits="userSpaceOnUse">
<stop stop-color="#F7331D"/>
<stop offset="1" stop-color="#F7941D"/>
</linearGradient>
<linearGradient id="paint3_linear_699_288" x1="30.3593" y1="100.118" x2="73.7748" y2="6.74461" gradientUnits="userSpaceOnUse">
<stop stop-color="#F7331D"/>
<stop offset="1" stop-color="#F7941D"/>
</linearGradient>
<linearGradient id="paint4_linear_699_288" x1="29.4308" y1="-6.59661" x2="0.632328" y2="76.7426" gradientUnits="userSpaceOnUse">
<stop stop-color="#880ADC"/>
<stop offset="1" stop-color="#5C2783"/>
</linearGradient>
<linearGradient id="paint5_linear_699_288" x1="32.2468" y1="-5.62253" x2="3.45124" y2="77.7167" gradientUnits="userSpaceOnUse">
<stop stop-color="#880ADC"/>
<stop offset="1" stop-color="#5C2783"/>
</linearGradient>
<linearGradient id="paint6_linear_699_288" x1="38.3461" y1="-3.51503" x2="9.55052" y2="79.8242" gradientUnits="userSpaceOnUse">
<stop stop-color="#880ADC"/>
<stop offset="1" stop-color="#5C2783"/>
</linearGradient>
<linearGradient id="paint7_linear_699_288" x1="44.0626" y1="-1.5384" x2="15.2642" y2="81.798" gradientUnits="userSpaceOnUse">
<stop stop-color="#880ADC"/>
<stop offset="1" stop-color="#5C2783"/>
</linearGradient>
<linearGradient id="paint8_linear_699_288" x1="50.0776" y1="0.538076" x2="21.2792" y2="83.8773" gradientUnits="userSpaceOnUse">
<stop stop-color="#880ADC"/>
<stop offset="1" stop-color="#5C2783"/>
</linearGradient>
<linearGradient id="paint9_linear_699_288" x1="62.2054" y1="4.73083" x2="33.4069" y2="88.0672" gradientUnits="userSpaceOnUse">
<stop stop-color="#880ADC"/>
<stop offset="1" stop-color="#5C2783"/>
</linearGradient>
<linearGradient id="paint10_linear_699_288" x1="69.5367" y1="7.26288" x2="40.7382" y2="90.6021" gradientUnits="userSpaceOnUse">
<stop stop-color="#880ADC"/>
<stop offset="1" stop-color="#5C2783"/>
</linearGradient>
<linearGradient id="paint11_linear_699_288" x1="75.6816" y1="9.38446" x2="46.8831" y2="92.7237" gradientUnits="userSpaceOnUse">
<stop stop-color="#880ADC"/>
<stop offset="1" stop-color="#5C2783"/>
</linearGradient>
<linearGradient id="paint12_linear_699_288" x1="81.6346" y1="11.444" x2="52.8362" y2="94.7804" gradientUnits="userSpaceOnUse">
<stop stop-color="#880ADC"/>
<stop offset="1" stop-color="#5C2783"/>
</linearGradient>
<linearGradient id="paint13_linear_699_288" x1="87.2641" y1="13.3891" x2="58.4656" y2="96.7255" gradientUnits="userSpaceOnUse">
<stop stop-color="#880ADC"/>
<stop offset="1" stop-color="#5C2783"/>
</linearGradient>
<linearGradient id="paint14_linear_699_288" x1="94.3053" y1="15.8214" x2="65.5068" y2="99.1606" gradientUnits="userSpaceOnUse">
<stop stop-color="#880ADC"/>
<stop offset="1" stop-color="#5C2783"/>
</linearGradient>
<linearGradient id="paint15_linear_699_288" x1="31.5941" y1="-5.84715" x2="2.79564" y2="77.492" gradientUnits="userSpaceOnUse">
<stop stop-color="#880ADC"/>
<stop offset="1" stop-color="#5C2783"/>
</linearGradient>
<linearGradient id="paint16_linear_699_288" x1="33.548" y1="-5.17225" x2="4.74954" y2="78.167" gradientUnits="userSpaceOnUse">
<stop stop-color="#880ADC"/>
<stop offset="1" stop-color="#5C2783"/>
</linearGradient>
<linearGradient id="paint17_linear_699_288" x1="35.8743" y1="-4.36621" x2="7.07876" y2="78.9701" gradientUnits="userSpaceOnUse">
<stop stop-color="#880ADC"/>
<stop offset="1" stop-color="#5C2783"/>
</linearGradient>
<linearGradient id="paint18_linear_699_288" x1="40.6039" y1="-2.73414" x2="11.8054" y2="80.6051" gradientUnits="userSpaceOnUse">
<stop stop-color="#880ADC"/>
<stop offset="1" stop-color="#5C2783"/>
</linearGradient>
<linearGradient id="paint19_linear_699_288" x1="44.0298" y1="-1.54931" x2="15.2313" y2="81.787" gradientUnits="userSpaceOnUse">
<stop stop-color="#880ADC"/>
<stop offset="1" stop-color="#5C2783"/>
</linearGradient>
<linearGradient id="paint20_linear_699_288" x1="47.8575" y1="-0.227882" x2="19.059" y2="83.1113" gradientUnits="userSpaceOnUse">
<stop stop-color="#880ADC"/>
<stop offset="1" stop-color="#5C2783"/>
</linearGradient>
<linearGradient id="paint21_linear_699_288" x1="51.9526" y1="1.18786" x2="23.1571" y2="84.527" gradientUnits="userSpaceOnUse">
<stop stop-color="#880ADC"/>
<stop offset="1" stop-color="#5C2783"/>
</linearGradient>
<linearGradient id="paint22_linear_699_288" x1="56.2743" y1="2.68025" x2="27.4787" y2="86.0195" gradientUnits="userSpaceOnUse">
<stop stop-color="#880ADC"/>
<stop offset="1" stop-color="#5C2783"/>
</linearGradient>
<linearGradient id="paint23_linear_699_288" x1="59.877" y1="3.92474" x2="31.0785" y2="87.264" gradientUnits="userSpaceOnUse">
<stop stop-color="#880ADC"/>
<stop offset="1" stop-color="#5C2783"/>
</linearGradient>
<linearGradient id="paint24_linear_699_288" x1="64.1037" y1="5.38591" x2="35.3081" y2="88.7251" gradientUnits="userSpaceOnUse">
<stop stop-color="#880ADC"/>
<stop offset="1" stop-color="#5C2783"/>
</linearGradient>
<linearGradient id="paint25_linear_699_288" x1="67.5982" y1="6.59398" x2="38.8026" y2="89.9332" gradientUnits="userSpaceOnUse">
<stop stop-color="#880ADC"/>
<stop offset="1" stop-color="#5C2783"/>
</linearGradient>
<linearGradient id="paint26_linear_699_288" x1="72.5434" y1="8.30275" x2="43.7478" y2="91.642" gradientUnits="userSpaceOnUse">
<stop stop-color="#880ADC"/>
<stop offset="1" stop-color="#5C2783"/>
</linearGradient>
<linearGradient id="paint27_linear_699_288" x1="77.0888" y1="9.87466" x2="48.2932" y2="93.211" gradientUnits="userSpaceOnUse">
<stop stop-color="#880ADC"/>
<stop offset="1" stop-color="#5C2783"/>
</linearGradient>
<linearGradient id="paint28_linear_699_288" x1="80.8209" y1="11.1625" x2="52.0254" y2="94.5017" gradientUnits="userSpaceOnUse">
<stop stop-color="#880ADC"/>
<stop offset="1" stop-color="#5C2783"/>
</linearGradient>
<linearGradient id="paint29_linear_699_288" x1="88.1079" y1="13.6831" x2="59.3094" y2="97.0194" gradientUnits="userSpaceOnUse">
<stop stop-color="#880ADC"/>
<stop offset="1" stop-color="#5C2783"/>
</linearGradient>
<linearGradient id="paint30_linear_699_288" x1="93.7339" y1="15.6256" x2="64.9383" y2="98.9648" gradientUnits="userSpaceOnUse">
<stop stop-color="#880ADC"/>
<stop offset="1" stop-color="#5C2783"/>
</linearGradient>
<linearGradient id="paint31_linear_699_288" x1="97.2291" y1="16.8329" x2="68.4335" y2="100.172" gradientUnits="userSpaceOnUse">
<stop stop-color="#880ADC"/>
<stop offset="1" stop-color="#5C2783"/>
</linearGradient>
<linearGradient id="paint32_linear_699_288" x1="99.8097" y1="17.7242" x2="71.0141" y2="101.063" gradientUnits="userSpaceOnUse">
<stop stop-color="#880ADC"/>
<stop offset="1" stop-color="#5C2783"/>
</linearGradient>
<linearGradient id="paint33_linear_699_288" x1="102.914" y1="18.7986" x2="74.1153" y2="102.135" gradientUnits="userSpaceOnUse">
<stop stop-color="#880ADC"/>
<stop offset="1" stop-color="#5C2783"/>
</linearGradient>
<linearGradient id="paint34_linear_699_288" x1="104.981" y1="19.5103" x2="76.1823" y2="102.849" gradientUnits="userSpaceOnUse">
<stop stop-color="#880ADC"/>
<stop offset="1" stop-color="#5C2783"/>
</linearGradient>
<linearGradient id="paint35_linear_699_288" x1="106.518" y1="20.0428" x2="77.7192" y2="103.379" gradientUnits="userSpaceOnUse">
<stop stop-color="#880ADC"/>
<stop offset="1" stop-color="#5C2783"/>
</linearGradient>
<linearGradient id="paint36_linear_699_288" x1="107.459" y1="20.3678" x2="78.6606" y2="103.707" gradientUnits="userSpaceOnUse">
<stop stop-color="#880ADC"/>
<stop offset="1" stop-color="#5C2783"/>
</linearGradient>
<linearGradient id="paint37_linear_699_288" x1="108.485" y1="20.724" x2="79.6893" y2="104.06" gradientUnits="userSpaceOnUse">
<stop stop-color="#880ADC"/>
<stop offset="1" stop-color="#5C2783"/>
</linearGradient>
<linearGradient id="paint38_linear_699_288" x1="108.587" y1="20.7582" x2="79.789" y2="104.095" gradientUnits="userSpaceOnUse">
<stop stop-color="#880ADC"/>
<stop offset="1" stop-color="#5C2783"/>
</linearGradient>
<linearGradient id="paint39_linear_699_288" x1="108.117" y1="20.5958" x2="79.3215" y2="103.935" gradientUnits="userSpaceOnUse">
<stop stop-color="#880ADC"/>
<stop offset="1" stop-color="#5C2783"/>
</linearGradient>
<linearGradient id="paint40_linear_699_288" x1="107.026" y1="20.2168" x2="78.2272" y2="103.556" gradientUnits="userSpaceOnUse">
<stop stop-color="#880ADC"/>
<stop offset="1" stop-color="#5C2783"/>
</linearGradient>
<radialGradient id="paint41_radial_699_288" cx="0" cy="0" r="1" gradientUnits="userSpaceOnUse" gradientTransform="translate(95.0572 45.0103) scale(2.50644)">
<stop stop-color="#F7941D"/>
<stop offset="1" stop-color="#F7331D"/>
</radialGradient>
<clipPath id="clip0_699_288">
<rect width="105" height="105" fill="white"/>
</clipPath>
</defs>
</svg>
