<svg width="39" height="38" viewBox="0 0 39 38" fill="none" xmlns="http://www.w3.org/2000/svg">
<path d="M38.3263 18.5792C38.3263 28.8409 29.9458 37.1583 19.6104 37.1583C9.27322 37.1583 0.894531 28.839 0.894531 18.5792C0.894531 8.31747 9.27509 0 19.6104 0C29.9477 0 38.3263 8.31933 38.3263 18.5792Z" fill="#441355"/>
<path d="M12.9794 13.6163C14.311 13.6163 15.3905 12.5447 15.3905 11.2228C15.3905 9.90094 14.311 8.82935 12.9794 8.82935C11.6478 8.82935 10.5684 9.90094 10.5684 11.2228C10.5684 12.5447 11.6478 13.6163 12.9794 13.6163Z" fill="white"/>
<path d="M14.6305 15.2119H11.3294C11.1313 15.2119 10.9707 15.3713 10.9707 15.568V26.8213C10.9707 27.018 11.1313 27.1774 11.3294 27.1774H14.6305C14.8286 27.1774 14.9892 27.018 14.9892 26.8213V15.568C14.9892 15.3713 14.8286 15.2119 14.6305 15.2119Z" fill="white"/>
<path d="M28.6472 19.5965V26.3761C28.6472 26.8142 28.2848 27.1739 27.8435 27.1739H25.4324C24.9911 27.1739 24.6287 26.8142 24.6287 26.3761V20.7932C24.6287 19.6916 23.7293 18.7987 22.6195 18.7987C21.5097 18.7987 20.6103 19.6916 20.6103 20.7932V26.3761C20.6103 26.8142 20.2478 27.1739 19.8066 27.1739H17.3955C16.9542 27.1739 16.5918 26.8142 16.5918 26.3761V16.0063C16.5918 15.5682 16.9542 15.2085 17.3955 15.2085H19.8066C20.2478 15.2085 20.6103 15.5682 20.6103 16.0063V16.5171C21.414 15.4844 22.7434 14.8096 24.2269 14.8096C26.4446 14.8096 28.6472 16.4052 28.6472 19.5965Z" fill="white"/>
</svg>
