<svg width="146" height="146" viewBox="0 0 146 146" fill="none" xmlns="http://www.w3.org/2000/svg">
<circle cx="72.6719" cy="72.836" r="69.8673" fill="#EBEEEA" stroke="url(#paint0_linear_16_4)" stroke-width="5"/>
<path d="M84.6364 70C89.4655 70 93.3345 65.98 93.3345 61C93.3345 56.02 89.4655 52 84.6364 52C79.8073 52 75.9091 56.02 75.9091 61C75.9091 65.98 79.8073 70 84.6364 70ZM61.3636 70C66.1927 70 70.0618 65.98 70.0618 61C70.0618 56.02 66.1927 52 61.3636 52C56.5345 52 52.6364 56.02 52.6364 61C52.6364 65.98 56.5345 70 61.3636 70ZM61.3636 76C54.5855 76 41 79.51 41 86.5V94H81.7273V86.5C81.7273 79.51 68.1418 76 61.3636 76ZM84.6364 76C83.7927 76 82.8327 76.06 81.8145 76.15C85.1891 78.67 87.5455 82.06 87.5455 86.5V94H105V86.5C105 79.51 91.4145 76 84.6364 76Z" fill="#FB4738"/>
<defs>
<linearGradient id="paint0_linear_16_4" x1="72.6719" y1="145.203" x2="72.6719" y2="39.6183" gradientUnits="userSpaceOnUse">
<stop stop-color="#441355"/>
<stop offset="1" stop-color="#703BAF" stop-opacity="0"/>
</linearGradient>
</defs>
</svg>
