<svg width="48" height="47" viewBox="0 0 48 47" fill="none" xmlns="http://www.w3.org/2000/svg">
<path d="M47.1747 23.4988C47.1747 36.4778 36.6133 46.9976 23.5885 46.9976C10.5614 47 0 36.4778 0 23.4988C0 10.5222 10.5614 0 23.5862 0C36.6133 0 47.1723 10.5222 47.1723 23.4988H47.1747Z" fill="white"/>
<path d="M30.5784 21.6792L30.1855 24.822C30.1193 25.3477 29.672 25.7415 29.1443 25.7415H24.0328V38.8854C23.4933 38.9349 22.9466 38.9585 22.3953 38.9585C21.16 38.9585 19.9555 38.8359 18.7912 38.6025V25.7415H14.8606C14.5009 25.7415 14.2051 25.4467 14.2051 25.086V21.1534C14.2051 20.7927 14.4985 20.498 14.8606 20.498H18.7912V14.5968C18.7912 10.9754 21.7256 8.04248 25.3438 8.04248H29.93C30.2897 8.04248 30.5855 8.33719 30.5855 8.69791V12.6305C30.5855 12.9912 30.292 13.2859 29.93 13.2859H26.6525C25.2066 13.2859 24.0328 14.46 24.0328 15.9076V20.4957H29.5371C30.169 20.4957 30.6565 21.0497 30.5784 21.6768V21.6792Z" fill="#060606"/>
</svg>
