<svg width="122" height="122" viewBox="0 0 122 122" fill="none" xmlns="http://www.w3.org/2000/svg">
<g filter="url(#filter0_d_699_345)">
<circle cx="61" cy="61" r="52" transform="rotate(-180 61 61)" fill="url(#paint0_radial_699_345)"/>
<circle cx="61" cy="61" r="49" transform="rotate(-180 61 61)" stroke="white" stroke-width="6"/>
</g>
<g filter="url(#filter1_d_699_345)">
<path d="M46.33 58.6544L64.798 40.0627C65.4737 39.3825 66.3928 39 67.3515 39C70.5523 39 72.1608 42.8649 69.9051 45.1358L54.1463 61L69.9051 76.8643C72.1608 79.1351 70.5523 83 67.3515 83C66.3928 83 65.4737 82.6175 64.798 81.9373L46.33 63.3456C45.0407 62.0477 45.0407 59.9524 46.33 58.6544Z" fill="white"/>
</g>
<defs>
<filter id="filter0_d_699_345" x="0.3" y="0.3" width="121.4" height="121.4" filterUnits="userSpaceOnUse" color-interpolation-filters="sRGB">
<feFlood flood-opacity="0" result="BackgroundImageFix"/>
<feColorMatrix in="SourceAlpha" type="matrix" values="0 0 0 0 0 0 0 0 0 0 0 0 0 0 0 0 0 0 127 0" result="hardAlpha"/>
<feOffset/>
<feGaussianBlur stdDeviation="4.35"/>
<feComposite in2="hardAlpha" operator="out"/>
<feColorMatrix type="matrix" values="0 0 0 0 0 0 0 0 0 0 0 0 0 0 0 0 0 0 0.25 0"/>
<feBlend mode="normal" in2="BackgroundImageFix" result="effect1_dropShadow_699_345"/>
<feBlend mode="normal" in="SourceGraphic" in2="effect1_dropShadow_699_345" result="shape"/>
</filter>
<filter id="filter1_d_699_345" x="36.663" y="30.3" width="42.995" height="61.4" filterUnits="userSpaceOnUse" color-interpolation-filters="sRGB">
<feFlood flood-opacity="0" result="BackgroundImageFix"/>
<feColorMatrix in="SourceAlpha" type="matrix" values="0 0 0 0 0 0 0 0 0 0 0 0 0 0 0 0 0 0 127 0" result="hardAlpha"/>
<feOffset/>
<feGaussianBlur stdDeviation="4.35"/>
<feComposite in2="hardAlpha" operator="out"/>
<feColorMatrix type="matrix" values="0 0 0 0 0 0 0 0 0 0 0 0 0 0 0 0 0 0 0.25 0"/>
<feBlend mode="normal" in2="BackgroundImageFix" result="effect1_dropShadow_699_345"/>
<feBlend mode="normal" in="SourceGraphic" in2="effect1_dropShadow_699_345" result="shape"/>
</filter>
<radialGradient id="paint0_radial_699_345" cx="0" cy="0" r="1" gradientUnits="userSpaceOnUse" gradientTransform="translate(61 61) rotate(90) scale(52)">
<stop stop-color="#FE7D15"/>
<stop offset="1" stop-color="#FB4738"/>
</radialGradient>
</defs>
</svg>
