<svg width="146" height="146" viewBox="0 0 146 146" fill="none" xmlns="http://www.w3.org/2000/svg">
<circle cx="72.6719" cy="72.836" r="69.8673" fill="#EBEEEA" stroke="url(#paint0_linear_16_3)" stroke-width="5"/>
<path d="M58.5556 51.6667H52.7778C51.2454 51.6667 49.7758 52.2754 48.6923 53.359C47.6087 54.4425 47 55.9121 47 57.4445V92.1111C47 93.6435 47.6087 95.1131 48.6923 96.1966C49.7758 97.2802 51.2454 97.8889 52.7778 97.8889H69.2358M87.4444 77.6667V89.2222H99M87.4444 69V57.4445C87.4444 55.9121 86.8357 54.4425 85.7522 53.359C84.6686 52.2754 83.199 51.6667 81.6667 51.6667H75.8889" stroke="#FB4738" stroke-width="5" stroke-linecap="round" stroke-linejoin="round"/>
<path d="M58.5549 69H70.1104M58.5549 80.5556H67.2215M58.5549 51.6667C58.5549 50.1343 59.1636 48.6647 60.2471 47.5812C61.3307 46.4976 62.8003 45.8889 64.3326 45.8889H70.1104C71.6428 45.8889 73.1124 46.4976 74.1959 47.5812C75.2795 48.6647 75.8882 50.1343 75.8882 51.6667C75.8882 53.1991 75.2795 54.6687 74.1959 55.7522C73.1124 56.8357 71.6428 57.4445 70.1104 57.4445H64.3326C62.8003 57.4445 61.3307 56.8357 60.2471 55.7522C59.1636 54.6687 58.5549 53.1991 58.5549 51.6667ZM75.8882 89.2222C75.8882 92.287 77.1056 95.2262 79.2727 97.3933C81.4398 99.5603 84.379 100.778 87.4437 100.778C90.5085 100.778 93.4477 99.5603 95.6147 97.3933C97.7818 95.2262 98.9993 92.287 98.9993 89.2222C98.9993 86.1575 97.7818 83.2183 95.6147 81.0512C93.4477 78.8841 90.5085 77.6667 87.4437 77.6667C84.379 77.6667 81.4398 78.8841 79.2727 81.0512C77.1056 83.2183 75.8882 86.1575 75.8882 89.2222Z" stroke="#FB4738" stroke-width="5" stroke-linecap="round" stroke-linejoin="round"/>
<defs>
<linearGradient id="paint0_linear_16_3" x1="72.6719" y1="145.203" x2="72.6719" y2="39.6183" gradientUnits="userSpaceOnUse">
<stop stop-color="#441355"/>
<stop offset="1" stop-color="#703BAF" stop-opacity="0"/>
</linearGradient>
</defs>
</svg>
