<svg width="48" height="47" viewBox="0 0 48 47" fill="none" xmlns="http://www.w3.org/2000/svg">
<path d="M48.1273 23.4988C48.1273 36.4778 37.566 46.9976 24.5412 46.9976C11.514 46.9976 0.955017 36.4754 0.955017 23.4988C0.955017 10.5199 11.5164 0 24.5412 0C37.5683 0 48.1273 10.5222 48.1273 23.4988Z" fill="white"/>
<path d="M16.1888 17.2181C17.8669 17.2181 19.2273 15.8627 19.2273 14.1908C19.2273 12.5189 17.8669 11.1636 16.1888 11.1636C14.5107 11.1636 13.1503 12.5189 13.1503 14.1908C13.1503 15.8627 14.5107 17.2181 16.1888 17.2181Z" fill="#060606"/>
<path d="M18.2721 19.2358H14.112C13.8623 19.2358 13.66 19.4375 13.66 19.6862V33.9194C13.66 34.1681 13.8623 34.3697 14.112 34.3697H18.2721C18.5218 34.3697 18.7241 34.1681 18.7241 33.9194V19.6862C18.7241 19.4375 18.5218 19.2358 18.2721 19.2358Z" fill="#060606"/>
<path d="M35.9346 24.781V33.3559C35.9346 33.9099 35.4778 34.3649 34.9217 34.3649H31.8833C31.3271 34.3649 30.8704 33.9099 30.8704 33.3559V26.2947C30.8704 24.9013 29.7369 23.772 28.3383 23.772C26.9398 23.772 25.8063 24.9013 25.8063 26.2947V33.3559C25.8063 33.9099 25.3496 34.3649 24.7934 34.3649H21.755C21.1989 34.3649 20.7421 33.9099 20.7421 33.3559V20.2402C20.7421 19.6861 21.1989 19.2311 21.755 19.2311H24.7934C25.3496 19.2311 25.8063 19.6861 25.8063 20.2402V20.8862C26.8191 19.58 28.4945 18.7266 30.364 18.7266C33.1588 18.7266 35.9346 20.7447 35.9346 24.781Z" fill="#060606"/>
</svg>
